<svg xmlns="http://www.w3.org/2000/svg" version="1.1" xmlns:xlink="http://www.w3.org/1999/xlink" xmlns:svgjs="http://svgjs.dev/svgjs" width="1000" height="1000" viewBox="0 0 1000 1000"><rect width="1000" height="1000" fill="#000000"></rect><g transform="matrix(0.7,0,0,0.7,150.0000179903161,106.25)"><svg viewBox="0 0 320 360" data-background-color="#ffffff" preserveAspectRatio="xMidYMid meet" height="1125" width="1000" xmlns="http://www.w3.org/2000/svg" xmlns:xlink="http://www.w3.org/1999/xlink"><g id="tight-bounds" transform="matrix(1,0,0,1,-0.0000041120722471532645,0)"><svg viewBox="0 0 320 360" height="360" width="320"><rect width="320.00001233621674" height="360" fill="#ffffff" mask="url(&quot;#72b20b94-de78-4e61-b986-25974750530b&quot;)" data-fill-palette-color="tertiary"></rect><rect width="320.0000082241445" height="360" fill="#ffffff" mask="url(&quot;#fe735aed-00a8-4505-9645-b551289134f3&quot;)" data-fill-palette-color="accent"></rect><rect width="320.00000411207225" height="360" fill="#ffffff" mask="url(&quot;#3240b0ec-ac1e-4c7a-8b76-42ffc38f6583&quot;)" data-fill-palette-color="primary"></rect><g><svg></svg></g><g><svg viewBox="0 0 320 360" height="360" width="320"><g><path transform="translate(-15.58119,4.24857) scale(3.51065,3.51065)" d="M51.5 85.2c-0.4-0.5-0.8-0.2-0.8-0.5-2.4 0.6-6.9-1-8.8-0.8 0.4-0.6-0.6-0.5-0.6-0.9-0.4 0.6-0.8 0-1.4 0.2-0.6-1.5-3-0.4-3.3-2.3-1.4 0-1.9-0.8-3.3-1.6 0.1-0.1 0.2-0.1 0.3-0.2-0.7-0.1-0.7-0.5-1.3-0.5l0.2-0.4c-1.1-0.2-1.5-1.9-3.1-2.5-0.5-0.1-1.6-1.8-2.2-2.2-0.3-0.2-0.8-0.2-0.1-0.3-0.1-0.1-0.1-0.3 0-0.4-0.7-0.2-0.8-0.8-1.7-1.1-0.1-0.3 0.2-0.5 0-0.7-0.2-0.1-0.5 0.1-0.7 0-0.1 1.8 1.9 2 2.5 3.5-0.2-0.2-0.5-0.8-0.7-0.4-0.1 0.3 0.8 1.4 0.8 0.8-0.3 0.2-0.4-0.3-0.2-0.4 0.3 0.5 0.9 0.4 0.9 0.8-0.3 0.3-0.7-0.3-0.6 0.2 0.9 0.5 0.8 1 1.3 1.7-0.4-0.5-0.5 0.4-0.9 0-0.1-1.5-1.8-1.2-1.8-2.7-0.2-0.5-0.4-0.1-0.7-0.3 0.4-0.4-1.2-1.8-1.2-1.3-0.5-0.6-0.2-0.8-0.3-1.2-0.4-0.1-0.1 0.4-0.4 0.1 0.4-0.7-0.5-1.6-1.1-2.3l0.4-0.2c-0.7-0.4-0.8-1.2-1.3-2.1-0.6 0.9 1.2 2.9 0.9 3.3 0 0.1 0.7 0.9 0.9 1.3 0.8 1.4 1.4 3.1 2.5 3.9-0.2-0.1-0.1-0.7 0.2-0.4 0 0.3-0.2 0.6-0.2 0.9 0.6 0.6 1.1 1.1 1.7 1.7-1.3-0.8-2.6-1.6-3.5-2.8 0.5-0.1 1 0.8 1.4 0.7-1-0.8-0.7-1.1-1.1-2.1-0.4-0.3 0.1 0.4-0.3 0.5-1.3-1.2-2.3-1.9-2.9-3 0.1-0.1 0.2-0.2 0.2-0.4-0.1-0.1-0.1-0.1-0.2-0.2 0.6 0.6 0.8 1.1 1.5 1.2-0.3-0.3 0-0.4-0.4-0.7-0.2-0.4-0.5 0.2-0.7-0.1 0.2-0.3 0-0.7 0-1-0.2 0-0.4 0-0.5-0.3-0.2-0.1-0.3 0-0.4 0.2-0.1-0.1-0.1-0.3-0.2-0.4v-0.1c-0.1-0.1-0.2-0.3-0.3-0.4-0.8-2.1-1.3-4.9-2.4-6.7 0.3-1.2-0.2-3.6-0.5-4.2 0.3-0.5 0.1-2.8-0.1-3.2-0.5 0.2 0.1 1.3-0.4 1.6-0.5-2.2 0.3-4.7 0.1-6.7 0.2 0 0.4 0 0.4-0.1-0.3-0.3 0.2-0.9 0.1-1.6 0.4-0.9-0.9 1.3-0.9 2.2-0.1 0.2-0.5 0-0.4 0.5 0 0.7 0.2 2.1-0.2 3.1-0.2 0-0.2-0.2-0.4-0.1-0.1 0.5-0.2 1.1-0.3 1.6-0.1-0.2-0.2-0.5-0.2-0.6-0.5-2.5 0-5.4-0.2-7.5 0.4 0 0.4-0.6 0.7-0.8-0.1 0.8-0.3 1.8 0.2 2 0.4-3.9 1.2-8.2 3-12.4 1.3-3.1 3.2-6.2 5.5-8.7 0.2 0.3-0.1 1 0 1.3 2-2.1 3.3-4.6 5.5-6 0.1 0.5-0.9 0.9-0.9 1.3 0.9-0.9 1.2-0.6 2.2-0.9 0.3-0.4-0.4 0-0.5-0.4 0.6-0.4 1-0.9 1.4-1.2 0 0.1-0.1 0.1-0.1 0.2 1.1-0.3 1.2-0.9 2-1.1-0.1-0.1-0.3-0.2-0.6-0.1 0.2-0.1 0.5-0.3 0.8-0.4-0.1 0-0.1 0.1-0.2 0.1 0.6-0.3 0.1 0.1 0.1 0.3 0.1 0 0.2-0.1 0.2-0.1-0.6 0.4-1 0.6-1.2 1.3 0.3-0.2 0.4 0 0.8-0.3 0.4-0.2-0.1-0.5 0.2-0.7 0.3 0.2 0.7 0.1 1 0.1 0-0.2 0.1-0.4 0.3-0.5 0.1-0.2 0-0.3-0.1-0.3 0.1-0.1 0.2-0.1 0.4-0.2 0 0 0.1 0 0.1 0.1 1.7-0.8 3.6-1.5 5.4-2.1 1.1-0.1 2.5-0.1 3.1-0.8-0.2 0-0.4 0.1-0.5 0 0.1 0 0.3-0.1 0.4-0.1 0.2 0.2 0.5 0 0.2 0.4 0.1 0 0.1 0 0.2-0.1 0 0.1 0 0.1 0.1 0.2 0.1 0 0.2-0.1 0.3-0.3 0.1 0 0.2 0 0.3-0.1l-0.1 0.1c0.8-0.2 1.5-0.1 2.6-0.3 0-0.1 0-0.2 0-0.3 0.2 0 0.3-0.1 0.5-0.1v0.1c0.4-0.2 0.8 0.2 0.8 0 0.1 0 0.1 0 0.2 0 0 0.2-0.1 0.3-0.1 0.4 0.5 0 0.8 0 1-0.3-0.1-0.1-0.2-0.1-0.3-0.1 0.2 0 0.4-0.1 0.6-0.2 0.3 0.1 0.4 0.2 0.4 0.6 0.5-0.9 2.1 0.2 2.8 0 0.3 0 0.2-0.4 0.4-0.6 0.1 0 0.2 0 0.3 0 0.5 0.4 1.2 0.8 2.1 0.9-0.8-0.2 0.1-0.3 0.2-0.4-0.2 0-0.2-0.1-0.2-0.2 0.3 0 0.6 0.1 0.9 0.1 0 0.2 0.1 0.3 0.3 0.3 0.2 0 0.2-0.1 0.2-0.3 0.3 0 0.5 0 0.8 0.1-0.1 0.4 0.5 0.5 0.7 0.8-0.8-0.2-1.7-0.5-2 0 3.2 0.7 6.7 1.7 10.1 3.4 0 0 0 0 0 0.1h0.1c0.6 0.3 1.2 0.6 1.8 0.9 0.4 0.2 0.7 0.4 1.1 0.7 0 0.1 0 0.2 0.2 0.2h0.1c0.4 0.3 0.8 0.5 1.2 0.8 0.4 0.6 0.8 1.4 1.5 1.2 1.5 2.3 3.1 3.2 4.4 5.6 0.1-0.4 0.4 0.9 0.9 1-0.8-0.1 0.5 0.5-0.3 0.4 0.7 0.7 0.9 1 1 1.8-0.2-0.4-0.3-0.5-0.4-0.1-0.1 0.6 0.7-0.1 1 0.5-0.6 0-0.4 0.4-0.3 0.9 0.3-0.3 0.2-0.6 0.5-0.5 0.4 0.4-0.2 0.5-0.1 0.8 0.3-0.4 0.4-0.2 0.8 0-0.5 0.1 0.3 0.8-0.3 0.5 0.4 0.5 0.5 0.8 0.3 1.3-0.4-0.6-0.1-1-0.7-0.9 1.2 1 0.6 3.3 2 3.5-0.9 0.2 0 0.6-0.5 0.7 0.6 0.2 0.3 1 1 1.2-0.1 0.5-0.3 0.8-0.4 1.3 0.3 0.4 0.4 1.2 0.9 1.3-0.3 0.3-0.1 1.1-0.4 1.4 0.4-0.2 0.6-0.2 0.9 0.2-0.5 0.4-0.1 0.8-0.4 0.9 0.9 2.3-0.2 7 0.3 8.8-0.6-0.3-0.4 0.7-0.8 0.7 0.7 0.3 0.1 0.8 0.4 1.3-1.4 0.8 0 3-1.9 3.5 0.2 1.4-0.6 2-1.2 3.5-0.1-0.1-0.1-0.2-0.2-0.3-0.1 0.7-0.5 0.8-0.3 1.4l-0.4-0.2c0 1.1-1.7 1.7-2.1 3.4-0.1 0.5-1.6 1.8-2 2.5-0.2 0.3-0.1 0.8-0.3 0.1-0.1 0.1-0.3 0.1-0.4 0.1-0.1 0.7-0.7 0.9-0.9 1.8-0.2 0.1-0.5-0.2-0.7 0.1 0 0.2 0.2 0.5 0.1 0.7 1.8-0.1 1.8-2.2 3.2-2.9-0.1 0.3-0.7 0.6-0.3 0.8 0.3 0 1.2-1 0.7-0.9 0.3 0.2-0.3 0.4-0.4 0.3 0.5-0.4 0.3-0.9 0.7-1 0.3 0.2-0.3 0.7 0.3 0.6 0.4-0.9 0.9-1 1.5-1.5-0.4 0.4 0.5 0.5 0.1 0.9-1.5 0.3-1 2-2.5 2.2-0.4 0.3-0.1 0.4-0.2 0.7-0.5-0.3-1.6 1.4-1.2 1.3-0.5 0.5-0.8 0.3-1.2 0.4-0.1 0.4 0.4 0.1 0.2 0.4-0.7-0.3-1.6 0.7-2.2 1.4l-0.3-0.3c-0.3 0.8-1.1 0.9-2 1.5 1 0.5 2.7-1.6 3.2-1.3 0.1 0 0.9-0.8 1.2-1.1 1.3-1 2.9-1.8 3.5-2.9-0.1 0.2-0.7 0.2-0.4-0.1 0.3-0.1 0.6 0.1 0.9 0.1 1.6-2.2 3.6-4 5.1-6.6 0.1-0.1 0.2-0.3 0.3-0.5-0.2 0.6-0.5 1.1-0.7 1.7-1.6 1.1-2.2 4.3-4.1 4.8 0.1 1.1-0.9 1.4-1.4 2.7-0.3 0.4-0.5-0.3-0.8 0.2 0.3 1.4-2.5 1.3-2.4 2.6-0.2 0.1-0.5 0.2-0.7 0.4h-0.1c-0.1 0.1-0.1 0.1-0.2 0.2-0.5 0.3-0.9 0.6-1.3 0.9-1.4 0.8-3.3 1.4-4.8 2.2v-0.1c-0.4 0.2-0.9 0.1-0.8 0.5-0.3 0.2-0.6 0.4-0.9 0.6-0.1 0-0.1 0-0.2 0 0 0-0.1-0.1-0.2-0.1-0.2 0-0.2 0-0.3 0.1-1.3 0.1-3 0.7-3.5 1.1-0.5-0.3-2.8 0.2-3.2 0.4 0.2 0.3 0.8 0 1.3 0-0.3 0.1-0.6 0.2-0.7 0.4-0.1 0-0.1 0-0.2 0-0.1-0.3-0.4 0-0.5-0.1h0.1c-0.1-0.4-0.4-0.6-0.9-0.5 0 0.2 0 0.3-0.1 0.5 0.2 0 0.8-0.3 0.8 0-0.1 0-0.1 0.1 0 0.1-0.2 0.2-0.5 0.2-0.7 0.3-0.4 0-0.9 0-1.3 0-0.1-0.1-0.2-0.1-0.4-0.2-0.1 0.1-0.3 0.1-0.4 0.2-0.6 0-1.3 0.1-1.8 0.2 0-0.2 0-0.4-0.2-0.4-0.3 0.4-0.9-0.1-1.6 0.1-0.7-0.2 0.4 0.3 1.4 0.5-0.1 0.1-0.2 0.2-0.5 0.3M37.5 86.6c-1.4-1.3-4.3-1.9-4.8-2.9-0.8-0.1-2-1.6-3-1.8 0.5 0 0.1-0.3 0-0.5-0.2 0.2-0.4 0.3-0.6 0.3 0-0.8-0.8-1.3-1.5-1.8 0.5 0.3 0.9 0.5 1.5 0.6 0-0.2 0-0.4 0.2-0.4 0.7 0.7 1.5 1.4 2.4 2.1 1.2 1.1 7.4 3.9 8.5 4.4 0 0-0.2 0.4-0.1 0.4 0.5 0.3 0.9-0.3 1 0.4-1.6 0.2-2.2-0.9-3.6-0.8M83.6 63.4v0.1 0c-0.1 0 0-0.1 0-0.1M43.2 17.1c-0.1 0.1-0.2 0.1-0.2 0.1 0-0.1 0.1-0.1 0.2-0.1M41.3 17.6c0 0.1 0 0.1 0 0 0 0.1 0 0.1 0 0 0 0.1 0 0 0 0M34.7 19.7v0c0.1-0.1 0.1-0.1 0.2-0.1-0.1 0-0.2 0.1-0.2 0.1M50.7 16.4c-0.2 0-0.3 0-0.4-0.1 0.1 0 0.2 0 0.3 0h0.1c0 0 0 0 0 0.1M52.5 16.6c-0.1-0.1-0.4-0.2-0.7-0.2 0-0.1 0.1-0.2 0.1-0.2 0.1 0 0.2 0 0.3 0 0 0 0.1 0 0.1 0.1 0 0 0 0 0-0.1 0.1 0 0.1 0 0.2 0 0.1 0.2 0.2 0.3 0 0.4M55.8 16.9c-0.5 0.1-0.8-0.1-1.3-0.4 0.3 0 0.7 0.1 1 0.2 0.1 0 0.2 0.1 0.3 0.2M91.4 31.1c-0.2 0.1-0.3 0.1-0.5-0.3-1.6-3.4-4.5-8.3-8.7-12.4-4.1-4.2-9.6-7.6-14.6-9.4 0.3 0.1 0.7 0.3 0.5 0.5-4.4-1.7-8.6-2.7-12.6-3.1-10.8-1.7-22.1 0.6-30.8 6.2 0.1 0.2 0.1 0.3-0.2 0.5-3.2 2-7.7 5.5-11.3 10.1-3.6 4.6-6.4 10.4-7.6 15.6 0.1-0.3 0.2-0.8 0.4-0.6-2.6 10.3-1.9 19.1 1.7 26.7 0.2-0.2-0.5-1.2 0.1-1.1 0.4 1.1 0.9 2.3 1.5 3.4 0.7 1.6 1.5 3.7 2.6 4.2-2.8-5.5-4.7-11.8-4.9-17.4 0.4 0.8 0.3 2.5 0.9 3.2 0.2-3.8-0.7-8.9 0.6-12.5-0.3 1.9-0.5 4.5-0.3 7.1 0 1.9 0.9 7.2 1.5 7.7-0.1-0.1-0.1-0.6 0-0.6 0.3 0.6-0.4 0.9 0.1 1 0-0.2 0.1-0.2 0.2-0.2 1 2.2 2.3 5.6 3.3 7.3 1.2 2.2 2.8 4.2 4.6 6 0 0.1 0.1 0.1 0.1 0.2 0.2 0.5 0.9 1.1 1.1 1.5 0.1 0.2-0.1 0.5 0 0.7 1.5 2.8 3.7 5.6 6.4 7.8 1.7 2 4.4 4.1 7.7 5.9 3.2 1.7 6.9 3.1 10.3 3.9 2.4 0.6 5.3 0.7 7.1 1.1 2.4 0.5 6.6-0.2 8.7-0.6 12.6-1.9 25.1-10.5 31.4-22.9 6.5-12.5 6.3-27.8 0.7-39.5" fill="#ffffff" fill-rule="nonzero" stroke="none" stroke-width="1" stroke-linecap="butt" stroke-linejoin="miter" stroke-miterlimit="10" stroke-dasharray="" stroke-dashoffset="0" font-family="none" font-weight="none" font-size="none" text-anchor="none" style="mix-blend-mode: normal" data-fill-palette-color="tertiary"></path></g><g transform="matrix(1,0,0,1,80,110.4689720202349)"><svg viewBox="0 0 160 139.0620559595302" height="139.0620559595302" width="160"><g><svg viewBox="0 0 160 139.0620559595302" height="139.0620559595302" width="160"><g><svg viewBox="0 0 160 139.0620559595302" height="139.0620559595302" width="160"><g transform="matrix(1,0,0,1,0,82.99832518131933)"><svg viewBox="0 0 160 56.063730778210854" height="56.063730778210854" width="160"><g id="textblocktransform"><svg viewBox="0 0 160 56.063730778210854" height="56.063730778210854" width="160" id="textblock"><g><svg viewBox="0 0 160 37.815912706833196" height="37.815912706833196" width="160"><g transform="matrix(1,0,0,1,0,0)"><svg width="160" viewBox="-1.25 -36 170.913333333325 40.4" height="37.815912706833196" data-palette-color="url(#02982692-a2fd-4896-b345-4cef048d46c8)"></svg></g></svg></g><g transform="matrix(1,0,0,1,0,43.33416195266512)"><svg viewBox="0 0 160 12.729568825545735" height="12.729568825545735" width="160"><g transform="matrix(1,0,0,1,0,0)"><svg width="160" viewBox="1.75 -32.7 554.24 44.1" height="12.729568825545735" data-palette-color="#ff4136"><path d="M25.9 0L24.95 0 24.9-0.7Q24.85-1.75 24.1-1.75L24.1-1.75Q23.7-1.75 22.65-1.2L22.65-1.2Q19.4 0.6 16.1 0.6L16.1 0.6Q9.8 0.6 5.78-3.75 1.75-8.1 1.75-15.73 1.75-23.35 5.73-27.73 9.7-32.1 16.1-32.1L16.1-32.1Q19.35-32.1 22.6-30.45L22.6-30.45Q23.65-29.9 24.1-29.9L24.1-29.9Q24.85-29.9 24.9-30.95L24.9-30.95 24.95-31.8 25.9-31.8 25.9-23.15 25-23.15Q24.55-27 22.13-28.83 19.7-30.65 16.1-30.65L16.1-30.65Q11.55-30.65 8.78-26.65 6-22.65 6-15.7 6-8.75 8.8-4.8 11.6-0.85 16.1-0.85L16.1-0.85Q19.7-0.85 22.13-2.68 24.55-4.5 25-8.35L25-8.35 25.9-8.35 25.9 0ZM32.95-2.45Q30.15-5.5 30.15-10.8 30.15-16.1 32.95-19.15 35.75-22.2 40.25-22.2 44.75-22.2 47.57-19.15 50.4-16.1 50.4-10.8 50.4-5.5 47.57-2.45 44.75 0.6 40.25 0.6 35.75 0.6 32.95-2.45ZM35.75-18.32Q33.95-15.55 33.95-10.8 33.95-6.05 35.75-3.28 37.55-0.5 40.25-0.5 42.95-0.5 44.77-3.28 46.6-6.05 46.6-10.8 46.6-15.55 44.77-18.32 42.95-21.1 40.25-21.1 37.55-21.1 35.75-18.32ZM75-14.6L75-14.6 75-1.5Q75-0.9 75.7-0.9L75.7-0.9 78.05-0.9 78.05 0 69.05 0 69.05-0.9 70.7-0.9Q71.4-0.9 71.4-1.5L71.4-1.5 71.4-15.25Q71.4-17.8 70.27-19.03 69.15-20.25 67.3-20.25L67.3-20.25Q64.7-20.25 63-17.18 61.3-14.1 61.3-8.35L61.3-8.35 61.3-1.6Q61.3-0.9 62-0.9L62-0.9 63.65-0.9 63.65 0 54.65 0 54.65-0.9 57-0.9Q57.7-0.9 57.7-1.5L57.7-1.5 57.7-20Q57.7-20.7 57-20.7L57-20.7 54.65-20.7 54.65-21.6 57.1-21.6Q60.1-21.6 61.3-21.9L61.3-21.9 61.3-15.1Q63-22.2 68.8-22.2L68.8-22.2Q71.4-22.2 73.2-20.33 75-18.45 75-14.6ZM102.39-14.6L102.39-14.6 102.39-1.5Q102.39-0.9 103.09-0.9L103.09-0.9 105.44-0.9 105.44 0 96.44 0 96.44-0.9 98.09-0.9Q98.79-0.9 98.79-1.5L98.79-1.5 98.79-15.25Q98.79-17.8 97.67-19.03 96.54-20.25 94.69-20.25L94.69-20.25Q92.09-20.25 90.39-17.18 88.69-14.1 88.69-8.35L88.69-8.35 88.69-1.6Q88.69-0.9 89.39-0.9L89.39-0.9 91.04-0.9 91.04 0 82.04 0 82.04-0.9 84.39-0.9Q85.09-0.9 85.09-1.5L85.09-1.5 85.09-20Q85.09-20.7 84.39-20.7L84.39-20.7 82.04-20.7 82.04-21.6 84.49-21.6Q87.49-21.6 88.69-21.9L88.69-21.9 88.69-15.1Q90.39-22.2 96.19-22.2L96.19-22.2Q98.79-22.2 100.59-20.33 102.39-18.45 102.39-14.6ZM119.29-22.2L119.29-22.2Q122.74-22.2 124.74-19.9 126.74-17.6 126.74-13.15L126.74-13.15Q126.74-12.25 126.64-11.15L126.64-11.15 112.99-11.15 112.99-10.8Q112.99-6.05 114.72-3.33 116.44-0.6 119.17-0.6 121.89-0.6 123.64-2 125.39-3.4 126.04-6L126.04-6 126.99-5.8Q126.39-2.75 124.24-1.07 122.09 0.6 119.29 0.6L119.29 0.6Q114.94 0.6 112.07-2.45 109.19-5.5 109.19-10.78 109.19-16.05 112.09-19.13 114.99-22.2 119.29-22.2ZM123.29-14.85L123.29-14.85Q123.29-21 118.69-21L118.69-21Q116.39-21 114.77-18.5 113.14-16 113.04-12.15L113.04-12.15 123.09-12.15Q123.29-13.85 123.29-14.85ZM141.44-21L141.44-21Q138.59-21 136.81-18.28 135.04-15.55 135.04-10.8 135.04-6.05 136.76-3.33 138.49-0.6 141.21-0.6 143.94-0.6 145.69-2 147.44-3.4 148.09-6L148.09-6 149.04-5.8Q148.44-2.75 146.29-1.07 144.14 0.6 141.34 0.6L141.34 0.6Q136.99 0.6 134.11-2.45 131.24-5.5 131.24-10.8 131.24-16.1 134.14-19.15 137.04-22.2 141.44-22.2L141.44-22.2Q144.84-22.2 146.54-20.68 148.24-19.15 148.24-16.6L148.24-16.6Q148.24-13.3 146.39-13.3L146.39-13.3Q144.89-13.3 143.99-14.1L143.99-14.1Q144.69-15.6 144.69-17.23 144.69-18.85 143.86-19.93 143.04-21 141.44-21ZM157.19-26.9L157.19-26.9 157.94-26.9 157.94-21.6 162.94-21.6 162.94-20.7 157.94-20.7 157.94-3.75Q157.94-1.05 159.44-1.05L159.44-1.05Q160.14-1.05 160.66-1.7 161.19-2.35 161.19-3.2 161.19-4.05 161.04-4.8L161.04-4.8 161.99-4.95Q162.19-4.2 162.19-3.3L162.19-3.3Q162.19-1.5 161.11-0.45 160.04 0.6 158.29 0.6 156.54 0.6 155.44-0.83 154.34-2.25 154.34-5.1L154.34-5.1 154.34-20Q154.34-20.7 153.64-20.7L153.64-20.7 151.29-20.7 151.29-21.6 153.74-21.6Q155.34-21.6 157.19-26.9ZM169.23-1.6L169.23-1.6 169.23-20Q169.23-20.7 168.53-20.7L168.53-20.7 166.18-20.7 166.18-21.6 168.63-21.6Q171.63-21.6 172.83-21.9L172.83-21.9 172.83-1.5Q172.83-0.9 173.53-0.9L173.53-0.9 175.88-0.9 175.88 0 166.18 0 166.18-0.9 168.53-0.9Q169.23-0.9 169.23-1.6ZM169.36-27.13Q168.68-27.8 168.68-28.8 168.68-29.8 169.36-30.48 170.03-31.15 171.03-31.15 172.03-31.15 172.71-30.48 173.38-29.8 173.38-28.8 173.38-27.8 172.71-27.13 172.03-26.45 171.03-26.45 170.03-26.45 169.36-27.13ZM182.18-2.45Q179.38-5.5 179.38-10.8 179.38-16.1 182.18-19.15 184.98-22.2 189.48-22.2 193.98-22.2 196.81-19.15 199.63-16.1 199.63-10.8 199.63-5.5 196.81-2.45 193.98 0.6 189.48 0.6 184.98 0.6 182.18-2.45ZM184.98-18.32Q183.18-15.55 183.18-10.8 183.18-6.05 184.98-3.28 186.78-0.5 189.48-0.5 192.18-0.5 194.01-3.28 195.83-6.05 195.83-10.8 195.83-15.55 194.01-18.32 192.18-21.1 189.48-21.1 186.78-21.1 184.98-18.32ZM224.23-14.6L224.23-14.6 224.23-1.5Q224.23-0.9 224.93-0.9L224.93-0.9 227.28-0.9 227.28 0 218.28 0 218.28-0.9 219.93-0.9Q220.63-0.9 220.63-1.5L220.63-1.5 220.63-15.25Q220.63-17.8 219.5-19.03 218.38-20.25 216.53-20.25L216.53-20.25Q213.93-20.25 212.23-17.18 210.53-14.1 210.53-8.35L210.53-8.35 210.53-1.6Q210.53-0.9 211.23-0.9L211.23-0.9 212.88-0.9 212.88 0 203.88 0 203.88-0.9 206.23-0.9Q206.93-0.9 206.93-1.5L206.93-1.5 206.93-20Q206.93-20.7 206.23-20.7L206.23-20.7 203.88-20.7 203.88-21.6 206.33-21.6Q209.33-21.6 210.53-21.9L210.53-21.9 210.53-15.1Q212.23-22.2 218.03-22.2L218.03-22.2Q220.63-22.2 222.43-20.33 224.23-18.45 224.23-14.6ZM237.53-13.55L237.53-13.55 242.73-11.6Q244.58-10.9 245.55-9.47 246.53-8.05 246.53-6.3L246.53-6.3Q246.53-3.6 244.38-1.5 242.23 0.6 238.6 0.6 234.98 0.6 231.78-0.75L231.78-0.75Q232.08-1.95 232.08-4.95L232.08-4.95 232.08-6.95 232.98-6.95 233.33-4.35Q233.78-0.6 238.58-0.6L238.58-0.6Q240.73-0.6 242.15-1.93 243.58-3.25 243.58-4.95L243.58-4.95Q243.58-7.3 240.73-8.35L240.73-8.35 235.53-10.3Q233.78-10.95 232.88-12.35 231.98-13.75 231.98-15.5L231.98-15.5Q231.98-18.15 233.88-20.18 235.78-22.2 238.65-22.2 241.53-22.2 245.13-20.85L245.13-20.85Q244.83-19.65 244.83-16.65L244.83-16.65 244.83-14.65 243.93-14.65 243.58-17.25Q243.18-20.85 239.03-20.85L239.03-20.85Q237.18-20.85 235.98-19.7 234.78-18.55 234.78-17L234.78-17Q234.78-14.6 237.53-13.55ZM290.07-0.9L290.07 0 279.82 0 279.82-0.9 283.07-0.9 279.57-10.55 268.57-10.55 265.07-0.9 268.32-0.9 268.32 0 260.77 0 260.77-0.9 262.62-0.9Q263.32-0.9 263.57-1.6L263.57-1.6 274.57-31.5 276.27-31.5 287.27-1.6Q287.52-0.9 288.22-0.9L288.22-0.9 290.07-0.9ZM279.07-11.95L274.12-25.6 269.12-11.95 279.07-11.95ZM304.32-22.2Q306.27-22.2 307.49-20.55 308.72-18.9 308.72-16.4 308.72-13.9 306.67-13.9L306.67-13.9Q305.47-13.9 304.72-14.65L304.72-14.65Q305.37-16.1 305.37-17.6L305.37-17.6Q305.37-20.25 303.17-20.25L303.17-20.25Q301.32-20.25 299.89-17.18 298.47-14.1 298.47-8.25L298.47-8.25 298.47-1.6Q298.47-0.9 299.17-0.9L299.17-0.9 302.52-0.9 302.52 0 291.82 0 291.82-0.9 294.17-0.9Q294.87-0.9 294.87-1.6L294.87-1.6 294.87-20Q294.87-20.7 294.17-20.7L294.17-20.7 291.82-20.7 291.82-21.6 294.27-21.6Q297.27-21.6 298.47-21.9L298.47-21.9 298.47-15.5Q299.27-18.95 300.82-20.58 302.37-22.2 304.32-22.2ZM321.07-22.2L321.07-22.2Q324.52-22.2 326.52-19.9 328.52-17.6 328.52-13.15L328.52-13.15Q328.52-12.25 328.42-11.15L328.42-11.15 314.77-11.15 314.77-10.8Q314.77-6.05 316.49-3.33 318.22-0.6 320.94-0.6 323.67-0.6 325.42-2 327.17-3.4 327.82-6L327.82-6 328.77-5.8Q328.17-2.75 326.02-1.07 323.87 0.6 321.07 0.6L321.07 0.6Q316.72 0.6 313.84-2.45 310.97-5.5 310.97-10.78 310.97-16.05 313.87-19.13 316.77-22.2 321.07-22.2ZM325.07-14.85L325.07-14.85Q325.07-21 320.47-21L320.47-21Q318.17-21 316.54-18.5 314.92-16 314.82-12.15L314.82-12.15 324.87-12.15Q325.07-13.85 325.07-14.85ZM361.81 0L345.26 0 345.26-0.9 347.61-0.9Q348.31-0.9 348.31-1.6L348.31-1.6 348.31-30Q348.31-30.6 347.61-30.6L347.61-30.6 345.26-30.6 345.26-31.5 361.11-31.5Q365.06-31.5 366.66-31.95L366.66-31.95Q366.21-29.9 366.21-26.25L366.21-26.25 366.21-23.9 365.06-23.9 364.31-29Q364.21-30.1 362.91-30.1L362.91-30.1 352.41-30.1 352.41-16.45 362.46-16.45Q363.06-16.45 363.16-17.15L363.16-17.15 363.41-20.25 364.31-20.25 364.31-11.25 363.41-11.25 363.16-14.35Q363.06-15.05 362.46-15.05L362.46-15.05 352.41-15.05 352.41-1.4 363.61-1.4Q364.91-1.4 365.01-2.5L365.01-2.5 365.76-8.35 366.91-8.35 366.91-6Q366.91-1.6 367.36 0.45L367.36 0.45Q365.76 0 361.81 0L361.81 0ZM383.86-20.7L383.86-21.6 390.21-21.6 390.21-20.7 388.36-20.7Q387.91-20.7 387.66-20L387.66-20 380.21 0 378.86 0 371.41-20Q371.16-20.7 370.71-20.7L370.71-20.7 368.86-20.7 368.86-21.6 377.36-21.6 377.36-20.7 374.86-20.7 380.61-4.9 386.41-20.7 383.86-20.7ZM401.81-22.2L401.81-22.2Q405.26-22.2 407.26-19.9 409.26-17.6 409.26-13.15L409.26-13.15Q409.26-12.25 409.16-11.15L409.16-11.15 395.51-11.15 395.51-10.8Q395.51-6.05 397.23-3.33 398.96-0.6 401.68-0.6 404.41-0.6 406.16-2 407.91-3.4 408.56-6L408.56-6 409.51-5.8Q408.91-2.75 406.76-1.07 404.61 0.6 401.81 0.6L401.81 0.6Q397.46 0.6 394.58-2.45 391.71-5.5 391.71-10.78 391.71-16.05 394.61-19.13 397.51-22.2 401.81-22.2ZM405.81-14.85L405.81-14.85Q405.81-21 401.21-21L401.21-21Q398.91-21 397.28-18.5 395.66-16 395.56-12.15L395.56-12.15 405.61-12.15Q405.81-13.85 405.81-14.85ZM426.5-22.2Q428.45-22.2 429.68-20.55 430.9-18.9 430.9-16.4 430.9-13.9 428.85-13.9L428.85-13.9Q427.65-13.9 426.9-14.65L426.9-14.65Q427.55-16.1 427.55-17.6L427.55-17.6Q427.55-20.25 425.35-20.25L425.35-20.25Q423.5-20.25 422.08-17.18 420.65-14.1 420.65-8.25L420.65-8.25 420.65-1.6Q420.65-0.9 421.35-0.9L421.35-0.9 424.7-0.9 424.7 0 414 0 414-0.9 416.35-0.9Q417.05-0.9 417.05-1.6L417.05-1.6 417.05-20Q417.05-20.7 416.35-20.7L416.35-20.7 414-20.7 414-21.6 416.45-21.6Q419.45-21.6 420.65-21.9L420.65-21.9 420.65-15.5Q421.45-18.95 423-20.58 424.55-22.2 426.5-22.2ZM445.65-20.7L445.65-21.6 452-21.6 452-20.7 450.15-20.7Q449.7-20.7 449.45-20L449.45-20 440.8 3.15Q440.65 3.6 440.3 4.5L440.3 4.5 439.75 5.85Q439.6 6.3 439.3 7.08 439 7.85 438.8 8.28 438.6 8.7 438.3 9.3L438.3 9.3Q437.95 10.05 437.3 10.73 436.65 11.4 435.95 11.4 435.25 11.4 434.48 10.53 433.7 9.65 433.55 8.65L433.55 8.65Q438.1 6.7 439.75 2.15L439.75 2.15 440.6-0.15 433.2-20Q432.95-20.7 432.5-20.7L432.5-20.7 430.65-20.7 430.65-21.6 439.15-21.6 439.15-20.7 436.65-20.7 442.4-4.9 448.2-20.7 445.65-20.7ZM458.4-26.9L458.4-26.9 459.15-26.9 459.15-21.6 464.15-21.6 464.15-20.7 459.15-20.7 459.15-3.75Q459.15-1.05 460.65-1.05L460.65-1.05Q461.35-1.05 461.87-1.7 462.4-2.35 462.4-3.2 462.4-4.05 462.25-4.8L462.25-4.8 463.2-4.95Q463.4-4.2 463.4-3.3L463.4-3.3Q463.4-1.5 462.32-0.45 461.25 0.6 459.5 0.6 457.75 0.6 456.65-0.83 455.55-2.25 455.55-5.1L455.55-5.1 455.55-20Q455.55-20.7 454.85-20.7L454.85-20.7 452.5-20.7 452.5-21.6 454.95-21.6Q456.55-21.6 458.4-26.9ZM487-14.6L487-14.6 487-1.5Q487-0.9 487.7-0.9L487.7-0.9 490.05-0.9 490.05 0 481.05 0 481.05-0.9 482.7-0.9Q483.4-0.9 483.4-1.5L483.4-1.5 483.4-15.25Q483.4-17.8 482.27-19.03 481.15-20.25 479.3-20.25L479.3-20.25Q476.7-20.25 475-17.18 473.3-14.1 473.3-8.35L473.3-8.35 473.3-1.6Q473.3-0.9 474-0.9L474-0.9 475.65-0.9 475.65 0 466.65 0 466.65-0.9 469-0.9Q469.7-0.9 469.7-1.5L469.7-1.5 469.7-30.8Q469.7-31.5 469-31.5L469-31.5 466.65-31.5 466.65-32.4 469.1-32.4Q472.1-32.4 473.3-32.7L473.3-32.7 473.3-15.1Q475-22.2 480.8-22.2L480.8-22.2Q483.4-22.2 485.2-20.33 487-18.45 487-14.6ZM496.84-1.6L496.84-1.6 496.84-20Q496.84-20.7 496.14-20.7L496.14-20.7 493.79-20.7 493.79-21.6 496.24-21.6Q499.24-21.6 500.44-21.9L500.44-21.9 500.44-1.5Q500.44-0.9 501.14-0.9L501.14-0.9 503.49-0.9 503.49 0 493.79 0 493.79-0.9 496.14-0.9Q496.84-0.9 496.84-1.6ZM496.97-27.13Q496.29-27.8 496.29-28.8 496.29-29.8 496.97-30.48 497.64-31.15 498.64-31.15 499.64-31.15 500.32-30.48 500.99-29.8 500.99-28.8 500.99-27.8 500.32-27.13 499.64-26.45 498.64-26.45 497.64-26.45 496.97-27.13ZM527.59-14.6L527.59-14.6 527.59-1.5Q527.59-0.9 528.29-0.9L528.29-0.9 530.64-0.9 530.64 0 521.64 0 521.64-0.9 523.29-0.9Q523.99-0.9 523.99-1.5L523.99-1.5 523.99-15.25Q523.99-17.8 522.87-19.03 521.74-20.25 519.89-20.25L519.89-20.25Q517.29-20.25 515.59-17.18 513.89-14.1 513.89-8.35L513.89-8.35 513.89-1.6Q513.89-0.9 514.59-0.9L514.59-0.9 516.24-0.9 516.24 0 507.24 0 507.24-0.9 509.59-0.9Q510.29-0.9 510.29-1.5L510.29-1.5 510.29-20Q510.29-20.7 509.59-20.7L509.59-20.7 507.24-20.7 507.24-21.6 509.69-21.6Q512.69-21.6 513.89-21.9L513.89-21.9 513.89-15.1Q515.59-22.2 521.39-22.2L521.39-22.2Q523.99-22.2 525.79-20.33 527.59-18.45 527.59-14.6ZM553.79-21L553.79-21 553.39-21.05Q552.94-24.15 551.14-24.15L551.14-24.15Q550.24-24.15 549.49-23.2 548.74-22.25 548.59-20.7L548.59-20.7Q551.29-18.65 551.29-15 551.29-11.35 549.16-9.38 547.04-7.4 543.64-7.4L543.64-7.4 539.19-7.4Q537.94-7.4 537.26-6.7 536.59-6 536.59-5.05 536.59-4.1 537.26-3.4 537.94-2.7 539.19-2.7L539.19-2.7 547.54-2.7Q550.54-2.7 552.06-1.33 553.59 0.05 553.59 2.15L553.59 2.15Q553.59 5.5 550.44 8.45 547.29 11.4 542.59 11.4L542.59 11.4Q538.99 11.4 536.74 9.7 534.49 8 534.49 5.4 534.49 2.8 537.24 0.4L537.24 0.4Q535.94 0.05 535.16-1.07 534.39-2.2 534.39-3.85 534.39-5.5 535.59-6.83 536.79-8.15 539.19-8.15L539.19-8.15 539.94-8.15Q536.04-9.95 536.04-14.8L536.04-14.8Q536.04-18.25 538.14-20.23 540.24-22.2 543.64-22.2L543.64-22.2Q545.89-22.2 547.59-21.3L547.59-21.3Q547.94-23.3 549.01-24.6 550.09-25.9 551.86-25.9 553.64-25.9 554.81-24.95 555.99-24 555.99-22.9L555.99-22.9Q555.99-21 553.79-21ZM547.54 0.6L547.54 0.6 538.79 0.6Q537.19 2.45 537.19 4.8 537.19 7.15 538.59 8.68 539.99 10.2 543.11 10.2 546.24 10.2 548.79 8 551.34 5.8 551.34 3.45L551.34 3.45Q551.34 2.2 550.39 1.4 549.44 0.6 547.54 0.6ZM540.74-19.4Q539.59-17.7 539.59-14.8 539.59-11.9 540.74-10.2 541.89-8.5 543.64-8.5 545.39-8.5 546.56-10.2 547.74-11.9 547.74-14.8 547.74-17.7 546.56-19.4 545.39-21.1 543.64-21.1 541.89-21.1 540.74-19.4Z" opacity="1" transform="matrix(1,0,0,1,0,0)" fill="#ffffff" class="undefined-text-1" data-fill-palette-color="secondary" id="text-1"></path></svg></g></svg></g></svg></g></svg></g><g transform="matrix(1,0,0,1,55.49160404136417,0)"><svg viewBox="0 0 49.016791917271654 77.4800759354874" height="77.4800759354874" width="49.016791917271654"><g><svg xmlns="http://www.w3.org/2000/svg" xmlns:xlink="http://www.w3.org/1999/xlink" version="1.1" x="0" y="0" viewBox="22.162 6.5 55.672089071149806 88" enable-background="new 0 0 100 100" xml:space="preserve" height="77.4800759354874" width="49.016791917271654" class="icon-icon-0" data-fill-palette-color="accent" id="icon-0"></svg></g></svg></g><g></g></svg></g></svg></g></svg></g></svg></g><defs><linearGradient x1="0" x2="1" y1="0.5" y2="0.5" id="02982692-a2fd-4896-b345-4cef048d46c8"><stop stop-color="#ffa62e" offset="0"></stop><stop stop-color="#f71b3d" offset="1"></stop></linearGradient><linearGradient x1="0" x2="1" y1="0.578" y2="0.595" id="04bf51fd-1ba0-459c-86c5-be57e0a64751"><stop stop-color="#dede50" offset="0"></stop><stop stop-color="#559c49" offset="1"></stop></linearGradient><linearGradient x1="0" x2="1" y1="0.548" y2="0.55" id="080d75db-9469-4e6b-bf26-0b5f5cb34c77"><stop stop-color="#ff6cab" offset="0"></stop><stop stop-color="#7366ff" offset="1"></stop></linearGradient></defs><mask id="3240b0ec-ac1e-4c7a-8b76-42ffc38f6583"><g id="SvgjsG1609"><svg viewBox="0 0 320 360" height="360" width="320"><g><svg></svg></g><g><svg viewBox="0 0 320 360" height="360" width="320"><g></g><g transform="matrix(1,0,0,1,80,110.4689720202349)"><svg viewBox="0 0 160 139.0620559595302" height="139.0620559595302" width="160"><g><svg viewBox="0 0 160 139.0620559595302" height="139.0620559595302" width="160"><g><svg viewBox="0 0 160 139.0620559595302" height="139.0620559595302" width="160"><g transform="matrix(1,0,0,1,0,82.99832518131933)"><svg viewBox="0 0 160 56.063730778210854" height="56.063730778210854" width="160"><g id="SvgjsG1608"><svg viewBox="0 0 160 56.063730778210854" height="56.063730778210854" width="160" id="SvgjsSvg1607"><g><svg viewBox="0 0 160 37.815912706833196" height="37.815912706833196" width="160"><g transform="matrix(1,0,0,1,0,0)"><svg width="160" viewBox="-1.25 -36 170.913333333325 40.4" height="37.815912706833196" data-palette-color="url(#02982692-a2fd-4896-b345-4cef048d46c8)"><path d="M-1.25 4.4L-1.25 4.4Q-1.05 2.35 0.13 1.43 1.3 0.5 3.18 0.23 5.05-0.05 7.2-0.05L7.2-0.05Q8.1-2 8.95-4.73 9.8-7.45 10.6-10.55 11.4-13.65 12.15-16.9 12.9-20.15 13.58-23.18 14.25-26.2 14.85-28.65 15.45-31.1 16-32.65L16-32.65Q13.4-32.6 11.48-32.48 9.55-32.35 7.88-32.1 6.2-31.85 4.35-31.5L4.35-31.5Q4.8-33.8 7.35-34.88 9.9-35.95 15.15-35.95L15.15-35.95Q17.75-35.95 20.5-35.75 23.25-35.55 25.58-35.3 27.9-35.05 29.15-34.85L29.15-34.85Q27.65-33.4 26.2-33.05 24.75-32.7 23.7-32.7L23.7-32.7Q22.05-32.7 20.75-32.7 19.45-32.7 18.25-32.65L18.25-32.65Q17.95-31.15 17.55-28.78 17.15-26.4 16.6-23.58 16.05-20.75 15.53-17.88 15-15 14.48-12.45 13.95-9.9 13.5-8.15L13.5-8.15Q12.8-5.35 11.88-3.2 10.95-1.05 9.7 0L9.7 0Q12.35 0.2 15.13 0.53 17.9 0.85 20.85 0.95L20.85 0.95Q19.05 2.65 17.32 3.08 15.6 3.5 14.5 3.5L14.5 3.5Q11.6 3.5 9.47 3.53 7.35 3.55 5.63 3.63 3.9 3.7 2.27 3.9 0.65 4.1-1.25 4.4ZM28.7 2.8L28.7 2.8Q26.15 2.8 24.5 1.18 22.85-0.45 22.85-3.75L22.85-3.75Q22.85-6.2 23.82-8.55 24.8-10.9 26.4-12.8 28-14.7 29.95-15.8 31.9-16.9 33.9-16.9L33.9-16.9Q36-16.9 36.87-15.8 37.75-14.7 37.75-13.35L37.75-13.35Q37.75-11.9 37.07-10.65 36.4-9.4 35.25-9.4L35.25-9.4Q34.3-9.4 33.7-10.3L33.7-10.3Q34.3-10.65 34.85-11.7 35.4-12.75 35.4-14.1L35.4-14.1Q35.4-14.6 35.2-14.85 35-15.1 34.4-15.1L34.4-15.1Q33.1-15.1 31.72-13.95 30.35-12.8 29.15-10.98 27.95-9.15 27.2-7.15 26.45-5.15 26.45-3.4L26.45-3.4Q26.45-1.95 27.2-0.75 27.95 0.45 30.05 0.45L30.05 0.45Q32 0.45 34.02-0.65 36.05-1.75 37.85-3.75 39.65-5.75 40.7-8.5L40.7-8.5 41.6-7.7Q40.4-4.7 38.32-2.33 36.25 0.05 33.72 1.43 31.2 2.8 28.7 2.8ZM43 1.6L43 1.6Q40.8 1.6 39.95 0.18 39.1-1.25 39.1-3.05L39.1-3.05Q39.1-4.65 39.6-6.3 40.1-7.95 40.95-9.4 41.8-10.85 42.85-11.75 43.9-12.65 45-12.65L45-12.65Q45.3-12.65 45.72-12.53 46.15-12.4 46.35-12.2L46.35-12.2Q45.8-11.6 45.17-10.5 44.55-9.4 44.02-8.13 43.5-6.85 43.17-5.58 42.85-4.3 42.85-3.25L42.85-3.25Q42.85-2.1 43.25-1.45 43.65-0.8 44.55-0.8L44.55-0.8Q45.55-0.8 46.92-1.88 48.3-2.95 49.55-4.5L49.55-4.5Q48-5.85 47.27-7.63 46.55-9.4 46.55-11.65L46.55-11.65Q46.55-12.9 47.1-14.3 47.65-15.7 48.8-16.65 49.95-17.6 51.8-17.6L51.8-17.6Q53.9-17.6 54.72-16.43 55.55-15.25 55.55-13.6L55.55-13.6Q55.55-11.75 54.57-9.43 53.6-7.1 52.25-5L52.25-5Q52.95-4.6 53.8-4.6L53.8-4.6Q54.55-4.6 55.6-4.95 56.65-5.3 57.62-6.13 58.59-6.95 59.2-8.3L59.2-8.3 60-7.7Q58.95-5.25 57.12-4.13 55.3-3 53.6-3L53.6-3Q52.95-3 52.3-3.13 51.65-3.25 51.1-3.5L51.1-3.5Q49.4-1.4 47.27 0.1 45.15 1.6 43 1.6ZM50.7-6L50.7-6Q51.95-7.75 52.77-9.78 53.6-11.8 53.6-13.5L53.6-13.5Q53.6-14.75 53.22-15.33 52.85-15.9 52.2-15.9L52.2-15.9Q51.2-15.9 50.2-14.53 49.2-13.15 49.2-11.05L49.2-11.05Q49.2-9.85 49.57-8.38 49.95-6.9 50.7-6ZM74.74 1L74.74 1Q72.89 1 71.92 0.05 70.94-0.9 70.94-2.35L70.94-2.35Q70.94-3.4 71.29-4.53 71.64-5.65 71.99-6.83 72.34-8 72.34-9.1L72.34-9.1Q72.34-10.3 71.79-10.75 71.24-11.2 70.49-11.2L70.49-11.2Q68.99-11.2 67.42-9.95 65.84-8.7 64.34-6.83 62.84-4.95 61.54-2.9 60.24-0.85 59.29 0.75L59.29 0.75Q58.39 0.75 57.59 0.45 56.79 0.15 56.24-0.6L56.24-0.6Q56.29-0.85 56.82-2.13 57.34-3.4 57.99-5.23 58.64-7.05 59.17-9 59.69-10.95 59.69-12.6L59.69-12.6Q60.04-12.95 60.74-13.35 61.44-13.75 62.19-13.75L62.19-13.75Q63.79-13.75 63.79-12.3L63.79-12.3Q63.79-11.65 63.49-10.23 63.19-8.8 62.69-7.15L62.69-7.15Q64.04-9 65.62-10.7 67.19-12.4 68.94-13.5 70.69-14.6 72.49-14.6L72.49-14.6Q74.54-14.6 75.52-13.18 76.49-11.75 76.49-10L76.49-10Q76.49-8.5 75.99-7.18 75.49-5.85 75.02-4.67 74.54-3.5 74.54-2.35L74.54-2.35Q74.54-1.5 74.92-1.13 75.29-0.75 75.84-0.75L75.84-0.75Q77.04-0.75 78.32-1.93 79.59-3.1 80.77-4.88 81.94-6.65 82.84-8.45L82.84-8.45 83.59-7.8Q82.54-5.35 81.24-3.35 79.94-1.35 78.34-0.18 76.74 1 74.74 1ZM98.29 1L98.29 1Q96.44 1 95.47 0.05 94.49-0.9 94.49-2.35L94.49-2.35Q94.49-3.4 94.84-4.53 95.19-5.65 95.54-6.83 95.89-8 95.89-9.1L95.89-9.1Q95.89-10.3 95.34-10.75 94.79-11.2 94.04-11.2L94.04-11.2Q92.54-11.2 90.97-9.95 89.39-8.7 87.89-6.83 86.39-4.95 85.09-2.9 83.79-0.85 82.84 0.75L82.84 0.75Q81.94 0.75 81.14 0.45 80.34 0.15 79.79-0.6L79.79-0.6Q79.84-0.85 80.37-2.13 80.89-3.4 81.54-5.23 82.19-7.05 82.72-9 83.24-10.95 83.24-12.6L83.24-12.6Q83.59-12.95 84.29-13.35 84.99-13.75 85.74-13.75L85.74-13.75Q87.34-13.75 87.34-12.3L87.34-12.3Q87.34-11.65 87.04-10.23 86.74-8.8 86.24-7.15L86.24-7.15Q87.59-9 89.17-10.7 90.74-12.4 92.49-13.5 94.24-14.6 96.04-14.6L96.04-14.6Q98.09-14.6 99.07-13.18 100.04-11.75 100.04-10L100.04-10Q100.04-8.5 99.54-7.18 99.04-5.85 98.57-4.67 98.09-3.5 98.09-2.35L98.09-2.35Q98.09-1.5 98.47-1.13 98.84-0.75 99.39-0.75L99.39-0.75Q100.59-0.75 101.87-1.93 103.14-3.1 104.32-4.88 105.49-6.65 106.39-8.45L106.39-8.45 107.14-7.8Q106.09-5.35 104.79-3.35 103.49-1.35 101.89-0.18 100.29 1 98.29 1ZM110.89 2.2L110.89 2.2Q107.74 2.2 106.09 0.5 104.44-1.2 104.44-3.75L104.44-3.75Q104.44-6 105.56-8.47 106.69-10.95 108.59-13.13 110.49-15.3 112.76-16.68 115.04-18.05 117.29-18.05L117.29-18.05Q118.54-18.05 119.66-17.4 120.79-16.75 120.79-14.8L120.79-14.8Q120.79-12.9 119.66-11.23 118.54-9.55 116.71-8.25 114.89-6.95 112.66-6.13 110.44-5.3 108.24-5.1L108.24-5.1Q108.19-4.8 108.14-4.5 108.09-4.2 108.09-3.7L108.09-3.7Q108.09-3.3 108.21-2.63 108.34-1.95 108.71-1.28 109.09-0.6 109.89-0.15 110.69 0.3 111.99 0.3L111.99 0.3Q114.09 0.3 116.21-0.9 118.34-2.1 120.19-4.08 122.04-6.05 123.29-8.45L123.29-8.45 124.14-7.75Q122.79-4.75 120.69-2.53 118.59-0.3 116.06 0.95 113.54 2.2 110.89 2.2ZM108.69-6.65L108.69-6.65Q109.99-6.9 111.64-7.68 113.29-8.45 114.79-9.63 116.29-10.8 117.26-12.2 118.24-13.6 118.24-15.05L118.24-15.05Q118.24-15.6 118.04-15.85 117.84-16.1 117.34-16.1L117.34-16.1Q116.14-16.1 114.86-15.23 113.59-14.35 112.36-12.98 111.14-11.6 110.19-9.93 109.24-8.25 108.69-6.65ZM127.69 2.8L127.69 2.8Q125.14 2.8 123.49 1.18 121.84-0.45 121.84-3.75L121.84-3.75Q121.84-6.2 122.81-8.55 123.79-10.9 125.39-12.8 126.99-14.7 128.94-15.8 130.89-16.9 132.89-16.9L132.89-16.9Q134.99-16.9 135.86-15.8 136.74-14.7 136.74-13.35L136.74-13.35Q136.74-11.9 136.06-10.65 135.39-9.4 134.24-9.4L134.24-9.4Q133.29-9.4 132.69-10.3L132.69-10.3Q133.29-10.65 133.84-11.7 134.39-12.75 134.39-14.1L134.39-14.1Q134.39-14.6 134.19-14.85 133.99-15.1 133.39-15.1L133.39-15.1Q132.09-15.1 130.71-13.95 129.34-12.8 128.14-10.98 126.94-9.15 126.19-7.15 125.44-5.15 125.44-3.4L125.44-3.4Q125.44-1.95 126.19-0.75 126.94 0.45 129.04 0.45L129.04 0.45Q130.99 0.45 133.01-0.65 135.04-1.75 136.84-3.75 138.64-5.75 139.69-8.5L139.69-8.5 140.59-7.7Q139.39-4.7 137.31-2.33 135.24 0.05 132.71 1.43 130.19 2.8 127.69 2.8ZM149.53 4.35L149.53 4.35Q146.93 4.35 145.96 3.3 144.98 2.25 144.93 0.6L144.93 0.6Q144.93-0.85 145.51-2.88 146.08-4.9 146.73-6.75L146.73-6.75Q147.78-9.9 149.06-13.3 150.33-16.7 151.68-20.05 153.03-23.4 154.31-26.5 155.58-29.6 156.73-32.15L156.73-32.15Q153.33-32.1 150.91-31.98 148.48-31.85 146.51-31.65 144.53-31.45 142.33-31.05L142.33-31.05Q142.53-33 144.21-34.08 145.88-35.15 148.73-35.58 151.58-36 155.23-36L155.23-36Q157.68-36 159.73-35.85 161.78-35.7 163.63-35.52 165.48-35.35 167.28-35.25L167.28-35.25Q168.83-34.5 169.33-34.3 169.83-34.1 169.58-34.1L169.58-34.1Q168.38-33.2 166.66-32.77 164.93-32.35 163.08-32.25 161.23-32.15 159.53-32.15L159.53-32.15Q157.38-26.9 155.36-20.63 153.33-14.35 151.48-7.7L151.48-7.7Q150.83-5.2 150.36-3.38 149.88-1.55 149.63-0.05 149.38 1.45 149.38 3L149.38 3Q149.38 3.25 149.41 3.58 149.43 3.9 149.53 4.35Z" opacity="1" transform="matrix(1,0,0,1,0,0)" fill="white" class="undefined-text-0" id="SvgjsPath1606"></path></svg></g></svg></g><g transform="matrix(1,0,0,1,0,43.33416195266512)"><svg viewBox="0 0 160 12.729568825545735" height="12.729568825545735" width="160"><g transform="matrix(1,0,0,1,0,0)"><svg width="160" viewBox="1.75 -32.7 554.24 44.1" height="12.729568825545735" data-palette-color="#ff4136"></svg></g></svg></g></svg></g></svg></g><g transform="matrix(1,0,0,1,55.49160404136417,0)"><svg viewBox="0 0 49.016791917271654 77.4800759354874" height="77.4800759354874" width="49.016791917271654"><g><svg xmlns="http://www.w3.org/2000/svg" xmlns:xlink="http://www.w3.org/1999/xlink" version="1.1" x="0" y="0" viewBox="22.162 6.5 55.672089071149806 88" enable-background="new 0 0 100 100" xml:space="preserve" height="77.4800759354874" width="49.016791917271654" class="icon-icon-0" data-fill-palette-color="accent" id="SvgjsSvg1604"></svg></g></svg></g><g></g></svg></g></svg></g></svg></g></svg></g><defs><mask></mask></defs></svg></g></mask><mask id="fe735aed-00a8-4505-9645-b551289134f3"><g id="SvgjsG1621"><svg viewBox="0 0 320 360" height="360" width="320"><g><svg></svg></g><g><svg viewBox="0 0 320 360" height="360" width="320"><g></g><g transform="matrix(1,0,0,1,80,110.4689720202349)"><svg viewBox="0 0 160 139.0620559595302" height="139.0620559595302" width="160"><g><svg viewBox="0 0 160 139.0620559595302" height="139.0620559595302" width="160"><g><svg viewBox="0 0 160 139.0620559595302" height="139.0620559595302" width="160"><g transform="matrix(1,0,0,1,0,82.99832518131933)"><svg viewBox="0 0 160 56.063730778210854" height="56.063730778210854" width="160"><g id="SvgjsG1620"><svg viewBox="0 0 160 56.063730778210854" height="56.063730778210854" width="160" id="SvgjsSvg1619"><g><svg viewBox="0 0 160 37.815912706833196" height="37.815912706833196" width="160"><g transform="matrix(1,0,0,1,0,0)"><svg width="160" viewBox="-1.25 -36 170.913333333325 40.4" height="37.815912706833196" data-palette-color="url(#02982692-a2fd-4896-b345-4cef048d46c8)"></svg></g></svg></g><g transform="matrix(1,0,0,1,0,43.33416195266512)"><svg viewBox="0 0 160 12.729568825545735" height="12.729568825545735" width="160"><g transform="matrix(1,0,0,1,0,0)"><svg width="160" viewBox="1.75 -32.7 554.24 44.1" height="12.729568825545735" data-palette-color="#ff4136"></svg></g></svg></g></svg></g></svg></g><g transform="matrix(1,0,0,1,55.49160404136417,0)"><svg viewBox="0 0 49.016791917271654 77.4800759354874" height="77.4800759354874" width="49.016791917271654"><g><svg xmlns="http://www.w3.org/2000/svg" xmlns:xlink="http://www.w3.org/1999/xlink" version="1.1" x="0" y="0" viewBox="22.162 6.5 55.672089071149806 88" enable-background="new 0 0 100 100" xml:space="preserve" height="77.4800759354874" width="49.016791917271654" class="icon-icon-0" data-fill-palette-color="accent" id="SvgjsSvg1617"><g fill="white"><g fill="white"><path fill-rule="evenodd" clip-rule="evenodd" d="M61.449 22.663c4.463 0 8.081-3.618 8.081-8.082S65.912 6.5 61.449 6.5c-4.464 0-8.082 3.618-8.082 8.082S56.985 22.663 61.449 22.663zM61.449 8.745c3.224 0 5.837 2.613 5.837 5.836s-2.613 5.837-5.837 5.837-5.837-2.613-5.837-5.837S58.226 8.745 61.449 8.745zM77.648 37.335c-1.2-7.545-7.996-13.325-16.199-13.325-4.46 0-8.494 1.717-11.449 4.489-2.955-2.772-6.99-4.489-11.45-4.489-8.218 0-15.021 5.8-16.205 13.365-0.112 0.209-0.183 0.528-0.183 1.002V54.99c0 2.728 2.211 4.938 4.939 4.938 0.995 0 1.918-0.297 2.694-0.803v30.436c0 2.728 2.211 4.938 4.939 4.938 1.537 0 2.91-0.703 3.816-1.805 0.906 1.102 2.279 1.805 3.816 1.805 2.728 0 4.939-2.211 4.939-4.938V59.125c0.217 0.142 0.448 0.263 0.687 0.37 0.086 0.038 0.176 0.067 0.264 0.102 0.191 0.072 0.387 0.134 0.588 0.183 0.089 0.021 0.177 0.043 0.268 0.06 0.289 0.054 0.583 0.09 0.887 0.09s0.599-0.036 0.888-0.09c0.09-0.017 0.177-0.038 0.265-0.06 0.205-0.05 0.405-0.111 0.601-0.187 0.083-0.031 0.167-0.059 0.247-0.095 0.241-0.107 0.476-0.229 0.694-0.372v30.436c0 2.728 2.211 4.938 4.938 4.938 1.537 0 2.91-0.703 3.816-1.805 0.905 1.102 2.278 1.805 3.816 1.805 2.728 0 4.938-2.211 4.938-4.938V59.125c0.775 0.507 1.699 0.804 2.694 0.804 2.728 0 4.938-2.214 4.938-4.945V38.351C77.837 37.868 77.764 37.544 77.648 37.335zM45.244 37.375c-0.112 0.209-0.183 0.528-0.183 1.002v51.184c0 1.487-1.206 2.693-2.694 2.693-1.487 0-2.694-1.206-2.694-2.693V57.459c0-0.62-0.502-1.122-1.123-1.122-0.62 0-1.122 0.502-1.122 1.122v32.103c0 1.487-1.207 2.693-2.694 2.693-1.488 0-2.694-1.206-2.694-2.693V39.5c0-0.62-0.503-1.123-1.123-1.123-0.62 0-1.123 0.502-1.123 1.123v15.49c0 1.487-1.206 2.693-2.694 2.693s-2.694-1.206-2.694-2.693V39.725c0-7.439 6.385-13.47 14.143-13.47 3.85 0 7.359 1.488 9.921 3.894C46.812 32.214 45.666 34.678 45.244 37.375zM52.694 54.983c0 1.49-1.207 2.697-2.694 2.697-1.488 0-2.694-1.207-2.694-2.697V39.725c0-2.94 1.009-5.652 2.694-7.867 1.686 2.215 2.694 4.927 2.694 7.867V54.983zM75.592 54.983c0 1.49-1.206 2.697-2.693 2.697-1.488 0-2.694-1.207-2.694-2.697V43.092c0-0.62-0.503-1.123-1.122-1.123-0.62 0-1.123 0.502-1.123 1.123v46.47c0 1.487-1.206 2.693-2.693 2.693-1.488 0-2.694-1.206-2.694-2.693V57.459c0-0.62-0.502-1.122-1.122-1.122s-1.123 0.502-1.123 1.122v32.103c0 1.487-1.206 2.693-2.693 2.693-1.488 0-2.694-1.206-2.694-2.693v-51.21c0-0.483-0.072-0.807-0.188-1.016-0.427-2.681-1.57-5.132-3.223-7.187 2.562-2.406 6.071-3.894 9.921-3.894 7.758 0 14.143 6.031 14.143 13.47V54.983zM38.551 22.663c4.463 0 8.082-3.618 8.082-8.082S43.014 6.5 38.551 6.5c-4.463 0-8.082 3.618-8.082 8.082S34.088 22.663 38.551 22.663zM38.551 8.745c3.224 0 5.837 2.613 5.837 5.836s-2.613 5.837-5.837 5.837c-3.223 0-5.836-2.613-5.836-5.837S35.328 8.745 38.551 8.745z" fill="white"></path></g></g></svg></g></svg></g><g></g></svg></g></svg></g></svg></g></svg></g><defs><linearGradient x1="0" x2="1" y1="0.5" y2="0.5" id="SvgjsLinearGradient1616"><stop stop-color="#ffa62e" offset="0"></stop><stop stop-color="#f71b3d" offset="1"></stop></linearGradient><mask></mask></defs><mask id="SvgjsMask1615"><g id="SvgjsG1614"><svg viewBox="0 0 320 360" height="360" width="320"><g><svg></svg></g><g><svg viewBox="0 0 320 360" height="360" width="320"><g></g><g transform="matrix(1,0,0,1,80,110.4689720202349)"><svg viewBox="0 0 160 139.0620559595302" height="139.0620559595302" width="160"><g><svg viewBox="0 0 160 139.0620559595302" height="139.0620559595302" width="160"><g><svg viewBox="0 0 160 139.0620559595302" height="139.0620559595302" width="160"><g transform="matrix(1,0,0,1,0,82.99832518131933)"><svg viewBox="0 0 160 56.063730778210854" height="56.063730778210854" width="160"><g id="SvgjsG1613"><svg viewBox="0 0 160 56.063730778210854" height="56.063730778210854" width="160" id="SvgjsSvg1612"><g><svg viewBox="0 0 160 37.815912706833196" height="37.815912706833196" width="160"><g transform="matrix(1,0,0,1,0,0)"><svg width="160" viewBox="-1.25 -36 170.913333333325 40.4" height="37.815912706833196" data-palette-color="url(#02982692-a2fd-4896-b345-4cef048d46c8)"></svg></g></svg></g><g transform="matrix(1,0,0,1,0,43.33416195266512)"><svg viewBox="0 0 160 12.729568825545735" height="12.729568825545735" width="160"><g transform="matrix(1,0,0,1,0,0)"><svg width="160" viewBox="1.75 -32.7 554.24 44.1" height="12.729568825545735" data-palette-color="#ff4136"></svg></g></svg></g></svg></g></svg></g><g transform="matrix(1,0,0,1,55.49160404136417,0)"><svg viewBox="0 0 49.016791917271654 77.4800759354874" height="77.4800759354874" width="49.016791917271654"><g><svg xmlns="http://www.w3.org/2000/svg" xmlns:xlink="http://www.w3.org/1999/xlink" version="1.1" x="0" y="0" viewBox="22.162 6.5 55.672089071149806 88" enable-background="new 0 0 100 100" xml:space="preserve" height="77.4800759354874" width="49.016791917271654" class="icon-icon-0" data-fill-palette-color="accent" id="SvgjsSvg1610"></svg></g></svg></g><g></g></svg></g></svg></g></svg></g></svg></g><defs><mask></mask></defs></svg></g></mask></svg></g></mask><mask id="72b20b94-de78-4e61-b986-25974750530b"><g id="SvgjsG1645"><svg viewBox="0 0 320 360" height="360" width="320"><g><svg></svg></g><g><svg viewBox="0 0 320 360" height="360" width="320"><g><path transform="translate(-15.58119,4.24857) scale(3.51065,3.51065)" d="M51.5 85.2c-0.4-0.5-0.8-0.2-0.8-0.5-2.4 0.6-6.9-1-8.8-0.8 0.4-0.6-0.6-0.5-0.6-0.9-0.4 0.6-0.8 0-1.4 0.2-0.6-1.5-3-0.4-3.3-2.3-1.4 0-1.9-0.8-3.3-1.6 0.1-0.1 0.2-0.1 0.3-0.2-0.7-0.1-0.7-0.5-1.3-0.5l0.2-0.4c-1.1-0.2-1.5-1.9-3.1-2.5-0.5-0.1-1.6-1.8-2.2-2.2-0.3-0.2-0.8-0.2-0.1-0.3-0.1-0.1-0.1-0.3 0-0.4-0.7-0.2-0.8-0.8-1.7-1.1-0.1-0.3 0.2-0.5 0-0.7-0.2-0.1-0.5 0.1-0.7 0-0.1 1.8 1.9 2 2.5 3.5-0.2-0.2-0.5-0.8-0.7-0.4-0.1 0.3 0.8 1.4 0.8 0.8-0.3 0.2-0.4-0.3-0.2-0.4 0.3 0.5 0.9 0.4 0.9 0.8-0.3 0.3-0.7-0.3-0.6 0.2 0.9 0.5 0.8 1 1.3 1.7-0.4-0.5-0.5 0.4-0.9 0-0.1-1.5-1.8-1.2-1.8-2.7-0.2-0.5-0.4-0.1-0.7-0.3 0.4-0.4-1.2-1.8-1.2-1.3-0.5-0.6-0.2-0.8-0.3-1.2-0.4-0.1-0.1 0.4-0.4 0.1 0.4-0.7-0.5-1.6-1.1-2.3l0.4-0.2c-0.7-0.4-0.8-1.2-1.3-2.1-0.6 0.9 1.2 2.9 0.9 3.3 0 0.1 0.7 0.9 0.9 1.3 0.8 1.4 1.4 3.1 2.5 3.9-0.2-0.1-0.1-0.7 0.2-0.4 0 0.3-0.2 0.6-0.2 0.9 0.6 0.6 1.1 1.1 1.7 1.7-1.3-0.8-2.6-1.6-3.5-2.8 0.5-0.1 1 0.8 1.4 0.7-1-0.8-0.7-1.1-1.1-2.1-0.4-0.3 0.1 0.4-0.3 0.5-1.3-1.2-2.3-1.9-2.9-3 0.1-0.1 0.2-0.2 0.2-0.4-0.1-0.1-0.1-0.1-0.2-0.2 0.6 0.6 0.8 1.1 1.5 1.2-0.3-0.3 0-0.4-0.4-0.7-0.2-0.4-0.5 0.2-0.7-0.1 0.2-0.3 0-0.7 0-1-0.2 0-0.4 0-0.5-0.3-0.2-0.1-0.3 0-0.4 0.2-0.1-0.1-0.1-0.3-0.2-0.4v-0.1c-0.1-0.1-0.2-0.3-0.3-0.4-0.8-2.1-1.3-4.9-2.4-6.7 0.3-1.2-0.2-3.6-0.5-4.2 0.3-0.5 0.1-2.8-0.1-3.2-0.5 0.2 0.1 1.3-0.4 1.6-0.5-2.2 0.3-4.7 0.1-6.7 0.2 0 0.4 0 0.4-0.1-0.3-0.3 0.2-0.9 0.1-1.6 0.4-0.9-0.9 1.3-0.9 2.2-0.1 0.2-0.5 0-0.4 0.5 0 0.7 0.2 2.1-0.2 3.1-0.2 0-0.2-0.2-0.4-0.1-0.1 0.5-0.2 1.1-0.3 1.6-0.1-0.2-0.2-0.5-0.2-0.6-0.5-2.5 0-5.4-0.2-7.5 0.4 0 0.4-0.6 0.7-0.8-0.1 0.8-0.3 1.8 0.2 2 0.4-3.9 1.2-8.2 3-12.4 1.3-3.1 3.2-6.2 5.5-8.7 0.2 0.3-0.1 1 0 1.3 2-2.1 3.3-4.6 5.5-6 0.1 0.5-0.9 0.9-0.9 1.3 0.9-0.9 1.2-0.6 2.2-0.9 0.3-0.4-0.4 0-0.5-0.4 0.6-0.4 1-0.9 1.4-1.2 0 0.1-0.1 0.1-0.1 0.2 1.1-0.3 1.2-0.9 2-1.1-0.1-0.1-0.3-0.2-0.6-0.1 0.2-0.1 0.5-0.3 0.8-0.4-0.1 0-0.1 0.1-0.2 0.1 0.6-0.3 0.1 0.1 0.1 0.3 0.1 0 0.2-0.1 0.2-0.1-0.6 0.4-1 0.6-1.2 1.3 0.3-0.2 0.4 0 0.8-0.3 0.4-0.2-0.1-0.5 0.2-0.7 0.3 0.2 0.7 0.1 1 0.1 0-0.2 0.1-0.4 0.3-0.5 0.1-0.2 0-0.3-0.1-0.3 0.1-0.1 0.2-0.1 0.4-0.2 0 0 0.1 0 0.1 0.1 1.7-0.8 3.6-1.5 5.4-2.1 1.1-0.1 2.5-0.1 3.1-0.8-0.2 0-0.4 0.1-0.5 0 0.1 0 0.3-0.1 0.4-0.1 0.2 0.2 0.5 0 0.2 0.4 0.1 0 0.1 0 0.2-0.1 0 0.1 0 0.1 0.1 0.2 0.1 0 0.2-0.1 0.3-0.3 0.1 0 0.2 0 0.3-0.1l-0.1 0.1c0.8-0.2 1.5-0.1 2.6-0.3 0-0.1 0-0.2 0-0.3 0.2 0 0.3-0.1 0.5-0.1v0.1c0.4-0.2 0.8 0.2 0.8 0 0.1 0 0.1 0 0.2 0 0 0.2-0.1 0.3-0.1 0.4 0.5 0 0.8 0 1-0.3-0.1-0.1-0.2-0.1-0.3-0.1 0.2 0 0.4-0.1 0.6-0.2 0.3 0.1 0.4 0.2 0.4 0.6 0.5-0.9 2.1 0.2 2.8 0 0.3 0 0.2-0.4 0.4-0.6 0.1 0 0.2 0 0.3 0 0.5 0.4 1.2 0.8 2.1 0.9-0.8-0.2 0.1-0.3 0.2-0.4-0.2 0-0.2-0.1-0.2-0.2 0.3 0 0.6 0.1 0.9 0.1 0 0.2 0.1 0.3 0.3 0.3 0.2 0 0.2-0.1 0.2-0.3 0.3 0 0.5 0 0.8 0.1-0.1 0.4 0.5 0.5 0.7 0.8-0.8-0.2-1.7-0.5-2 0 3.2 0.7 6.7 1.7 10.1 3.4 0 0 0 0 0 0.1h0.1c0.6 0.3 1.2 0.6 1.8 0.9 0.4 0.2 0.7 0.4 1.1 0.7 0 0.1 0 0.2 0.2 0.2h0.1c0.4 0.3 0.8 0.5 1.2 0.8 0.4 0.6 0.8 1.4 1.5 1.2 1.5 2.3 3.1 3.2 4.4 5.6 0.1-0.4 0.4 0.9 0.9 1-0.8-0.1 0.5 0.5-0.3 0.4 0.7 0.7 0.9 1 1 1.8-0.2-0.4-0.3-0.5-0.4-0.1-0.1 0.6 0.7-0.1 1 0.5-0.6 0-0.4 0.4-0.3 0.9 0.3-0.3 0.2-0.6 0.5-0.5 0.4 0.4-0.2 0.5-0.1 0.8 0.3-0.4 0.4-0.2 0.8 0-0.5 0.1 0.3 0.8-0.3 0.5 0.4 0.5 0.5 0.8 0.3 1.3-0.4-0.6-0.1-1-0.7-0.9 1.2 1 0.6 3.3 2 3.5-0.9 0.2 0 0.6-0.5 0.7 0.6 0.2 0.3 1 1 1.2-0.1 0.5-0.3 0.8-0.4 1.3 0.3 0.4 0.4 1.2 0.9 1.3-0.3 0.3-0.1 1.1-0.4 1.4 0.4-0.2 0.6-0.2 0.9 0.2-0.5 0.4-0.1 0.8-0.4 0.9 0.9 2.3-0.2 7 0.3 8.8-0.6-0.3-0.4 0.7-0.8 0.7 0.7 0.3 0.1 0.8 0.4 1.3-1.4 0.8 0 3-1.9 3.5 0.2 1.4-0.6 2-1.2 3.5-0.1-0.1-0.1-0.2-0.2-0.3-0.1 0.7-0.5 0.8-0.3 1.4l-0.4-0.2c0 1.1-1.7 1.7-2.1 3.4-0.1 0.5-1.6 1.8-2 2.5-0.2 0.3-0.1 0.8-0.3 0.1-0.1 0.1-0.3 0.1-0.4 0.1-0.1 0.7-0.7 0.9-0.9 1.8-0.2 0.1-0.5-0.2-0.7 0.1 0 0.2 0.2 0.5 0.1 0.7 1.8-0.1 1.8-2.2 3.2-2.9-0.1 0.3-0.7 0.6-0.3 0.8 0.3 0 1.2-1 0.7-0.9 0.3 0.2-0.3 0.4-0.4 0.3 0.5-0.4 0.3-0.9 0.7-1 0.3 0.2-0.3 0.7 0.3 0.6 0.4-0.9 0.9-1 1.5-1.5-0.4 0.4 0.5 0.5 0.1 0.9-1.5 0.3-1 2-2.5 2.2-0.4 0.3-0.1 0.4-0.2 0.7-0.5-0.3-1.6 1.4-1.2 1.3-0.5 0.5-0.8 0.3-1.2 0.4-0.1 0.4 0.4 0.1 0.2 0.4-0.7-0.3-1.6 0.7-2.2 1.4l-0.3-0.3c-0.3 0.8-1.1 0.9-2 1.5 1 0.5 2.7-1.6 3.2-1.3 0.1 0 0.9-0.8 1.2-1.1 1.3-1 2.9-1.8 3.5-2.9-0.1 0.2-0.7 0.2-0.4-0.1 0.3-0.1 0.6 0.1 0.9 0.1 1.6-2.2 3.6-4 5.1-6.6 0.1-0.1 0.2-0.3 0.3-0.5-0.2 0.6-0.5 1.1-0.7 1.7-1.6 1.1-2.2 4.3-4.1 4.8 0.1 1.1-0.9 1.4-1.4 2.7-0.3 0.4-0.5-0.3-0.8 0.2 0.3 1.4-2.5 1.3-2.4 2.6-0.2 0.1-0.5 0.2-0.7 0.4h-0.1c-0.1 0.1-0.1 0.1-0.2 0.2-0.5 0.3-0.9 0.6-1.3 0.9-1.4 0.8-3.3 1.4-4.8 2.2v-0.1c-0.4 0.2-0.9 0.1-0.8 0.5-0.3 0.2-0.6 0.4-0.9 0.6-0.1 0-0.1 0-0.2 0 0 0-0.1-0.1-0.2-0.1-0.2 0-0.2 0-0.3 0.1-1.3 0.1-3 0.7-3.5 1.1-0.5-0.3-2.8 0.2-3.2 0.4 0.2 0.3 0.8 0 1.3 0-0.3 0.1-0.6 0.2-0.7 0.4-0.1 0-0.1 0-0.2 0-0.1-0.3-0.4 0-0.5-0.1h0.1c-0.1-0.4-0.4-0.6-0.9-0.5 0 0.2 0 0.3-0.1 0.5 0.2 0 0.8-0.3 0.8 0-0.1 0-0.1 0.1 0 0.1-0.2 0.2-0.5 0.2-0.7 0.3-0.4 0-0.9 0-1.3 0-0.1-0.1-0.2-0.1-0.4-0.2-0.1 0.1-0.3 0.1-0.4 0.2-0.6 0-1.3 0.1-1.8 0.2 0-0.2 0-0.4-0.2-0.4-0.3 0.4-0.9-0.1-1.6 0.1-0.7-0.2 0.4 0.3 1.4 0.5-0.1 0.1-0.2 0.2-0.5 0.3M37.5 86.6c-1.4-1.3-4.3-1.9-4.8-2.9-0.8-0.1-2-1.6-3-1.8 0.5 0 0.1-0.3 0-0.5-0.2 0.2-0.4 0.3-0.6 0.3 0-0.8-0.8-1.3-1.5-1.8 0.5 0.3 0.9 0.5 1.5 0.6 0-0.2 0-0.4 0.2-0.4 0.7 0.7 1.5 1.4 2.4 2.1 1.2 1.1 7.4 3.9 8.5 4.4 0 0-0.2 0.4-0.1 0.4 0.5 0.3 0.9-0.3 1 0.4-1.6 0.2-2.2-0.9-3.6-0.8M83.6 63.4v0.1 0c-0.1 0 0-0.1 0-0.1M43.2 17.1c-0.1 0.1-0.2 0.1-0.2 0.1 0-0.1 0.1-0.1 0.2-0.1M41.3 17.6c0 0.1 0 0.1 0 0 0 0.1 0 0.1 0 0 0 0.1 0 0 0 0M34.7 19.7v0c0.1-0.1 0.1-0.1 0.2-0.1-0.1 0-0.2 0.1-0.2 0.1M50.7 16.4c-0.2 0-0.3 0-0.4-0.1 0.1 0 0.2 0 0.3 0h0.1c0 0 0 0 0 0.1M52.5 16.6c-0.1-0.1-0.4-0.2-0.7-0.2 0-0.1 0.1-0.2 0.1-0.2 0.1 0 0.2 0 0.3 0 0 0 0.1 0 0.1 0.1 0 0 0 0 0-0.1 0.1 0 0.1 0 0.2 0 0.1 0.2 0.2 0.3 0 0.4M55.8 16.9c-0.5 0.1-0.8-0.1-1.3-0.4 0.3 0 0.7 0.1 1 0.2 0.1 0 0.2 0.1 0.3 0.2M91.4 31.1c-0.2 0.1-0.3 0.1-0.5-0.3-1.6-3.4-4.5-8.3-8.7-12.4-4.1-4.2-9.6-7.6-14.6-9.4 0.3 0.1 0.7 0.3 0.5 0.5-4.4-1.7-8.6-2.7-12.6-3.1-10.8-1.7-22.1 0.6-30.8 6.2 0.1 0.2 0.1 0.3-0.2 0.5-3.2 2-7.7 5.5-11.3 10.1-3.6 4.6-6.4 10.4-7.6 15.6 0.1-0.3 0.2-0.8 0.4-0.6-2.6 10.3-1.9 19.1 1.7 26.7 0.2-0.2-0.5-1.2 0.1-1.1 0.4 1.1 0.9 2.3 1.5 3.4 0.7 1.6 1.5 3.7 2.6 4.2-2.8-5.5-4.7-11.8-4.9-17.4 0.4 0.8 0.3 2.5 0.9 3.2 0.2-3.8-0.7-8.9 0.6-12.5-0.3 1.9-0.5 4.5-0.3 7.1 0 1.9 0.9 7.2 1.5 7.7-0.1-0.1-0.1-0.6 0-0.6 0.3 0.6-0.4 0.9 0.1 1 0-0.2 0.1-0.2 0.2-0.2 1 2.2 2.3 5.6 3.3 7.3 1.2 2.2 2.8 4.2 4.6 6 0 0.1 0.1 0.1 0.1 0.2 0.2 0.5 0.9 1.1 1.1 1.5 0.1 0.2-0.1 0.5 0 0.7 1.5 2.8 3.7 5.6 6.4 7.8 1.7 2 4.4 4.1 7.7 5.9 3.2 1.7 6.9 3.1 10.3 3.9 2.4 0.6 5.3 0.7 7.1 1.1 2.4 0.5 6.6-0.2 8.7-0.6 12.6-1.9 25.1-10.5 31.4-22.9 6.5-12.5 6.3-27.8 0.7-39.5" fill="white" fill-rule="nonzero" stroke="none" stroke-width="1" stroke-linecap="butt" stroke-linejoin="miter" stroke-miterlimit="10" stroke-dasharray="" stroke-dashoffset="0" font-family="none" font-weight="none" font-size="none" text-anchor="none" style="mix-blend-mode: normal"></path></g><g transform="matrix(1,0,0,1,80,110.4689720202349)"><svg viewBox="0 0 160 139.0620559595302" height="139.0620559595302" width="160"><g><svg viewBox="0 0 160 139.0620559595302" height="139.0620559595302" width="160"><g><svg viewBox="0 0 160 139.0620559595302" height="139.0620559595302" width="160"><g transform="matrix(1,0,0,1,0,82.99832518131933)"><svg viewBox="0 0 160 56.063730778210854" height="56.063730778210854" width="160"><g id="SvgjsG1644"><svg viewBox="0 0 160 56.063730778210854" height="56.063730778210854" width="160" id="SvgjsSvg1643"><g><svg viewBox="0 0 160 37.815912706833196" height="37.815912706833196" width="160"><g transform="matrix(1,0,0,1,0,0)"><svg width="160" viewBox="-1.25 -36 170.913333333325 40.4" height="37.815912706833196" data-palette-color="url(#02982692-a2fd-4896-b345-4cef048d46c8)"></svg></g></svg></g><g transform="matrix(1,0,0,1,0,43.33416195266512)"><svg viewBox="0 0 160 12.729568825545735" height="12.729568825545735" width="160"><g transform="matrix(1,0,0,1,0,0)"><svg width="160" viewBox="1.75 -32.7 554.24 44.1" height="12.729568825545735" data-palette-color="#ff4136"></svg></g></svg></g></svg></g></svg></g><g transform="matrix(1,0,0,1,55.49160404136417,0)"><svg viewBox="0 0 49.016791917271654 77.4800759354874" height="77.4800759354874" width="49.016791917271654"><g><svg xmlns="http://www.w3.org/2000/svg" xmlns:xlink="http://www.w3.org/1999/xlink" version="1.1" x="0" y="0" viewBox="22.162 6.5 55.672089071149806 88" enable-background="new 0 0 100 100" xml:space="preserve" height="77.4800759354874" width="49.016791917271654" class="icon-icon-0" data-fill-palette-color="accent" id="SvgjsSvg1641"></svg></g></svg></g><g></g></svg></g></svg></g></svg></g></svg></g><defs><linearGradient x1="0" x2="1" y1="0.5" y2="0.5" id="SvgjsLinearGradient1640"><stop stop-color="#ffa62e" offset="0"></stop><stop stop-color="#f71b3d" offset="1"></stop></linearGradient><linearGradient x1="0" x2="1" y1="0.578" y2="0.595" id="SvgjsLinearGradient1639"><stop stop-color="#dede50" offset="0"></stop><stop stop-color="#559c49" offset="1"></stop></linearGradient><mask></mask></defs><mask id="SvgjsMask1638"><g id="SvgjsG1637"><svg viewBox="0 0 320 360" height="360" width="320"><g><svg></svg></g><g><svg viewBox="0 0 320 360" height="360" width="320"><g></g><g transform="matrix(1,0,0,1,80,110.4689720202349)"><svg viewBox="0 0 160 139.0620559595302" height="139.0620559595302" width="160"><g><svg viewBox="0 0 160 139.0620559595302" height="139.0620559595302" width="160"><g><svg viewBox="0 0 160 139.0620559595302" height="139.0620559595302" width="160"><g transform="matrix(1,0,0,1,0,82.99832518131933)"><svg viewBox="0 0 160 56.063730778210854" height="56.063730778210854" width="160"><g id="SvgjsG1636"><svg viewBox="0 0 160 56.063730778210854" height="56.063730778210854" width="160" id="SvgjsSvg1635"><g><svg viewBox="0 0 160 37.815912706833196" height="37.815912706833196" width="160"><g transform="matrix(1,0,0,1,0,0)"><svg width="160" viewBox="-1.25 -36 170.913333333325 40.4" height="37.815912706833196" data-palette-color="url(#02982692-a2fd-4896-b345-4cef048d46c8)"></svg></g></svg></g><g transform="matrix(1,0,0,1,0,43.33416195266512)"><svg viewBox="0 0 160 12.729568825545735" height="12.729568825545735" width="160"><g transform="matrix(1,0,0,1,0,0)"><svg width="160" viewBox="1.75 -32.7 554.24 44.1" height="12.729568825545735" data-palette-color="#ff4136"></svg></g></svg></g></svg></g></svg></g><g transform="matrix(1,0,0,1,55.49160404136417,0)"><svg viewBox="0 0 49.016791917271654 77.4800759354874" height="77.4800759354874" width="49.016791917271654"><g><svg xmlns="http://www.w3.org/2000/svg" xmlns:xlink="http://www.w3.org/1999/xlink" version="1.1" x="0" y="0" viewBox="22.162 6.5 55.672089071149806 88" enable-background="new 0 0 100 100" xml:space="preserve" height="77.4800759354874" width="49.016791917271654" class="icon-icon-0" data-fill-palette-color="accent" id="SvgjsSvg1633"></svg></g></svg></g><g></g></svg></g></svg></g></svg></g></svg></g><defs><mask></mask></defs></svg></g></mask><mask id="SvgjsMask1632"><g id="SvgjsG1631"><svg viewBox="0 0 320 360" height="360" width="320"><g><svg></svg></g><g><svg viewBox="0 0 320 360" height="360" width="320"><g></g><g transform="matrix(1,0,0,1,80,110.4689720202349)"><svg viewBox="0 0 160 139.0620559595302" height="139.0620559595302" width="160"><g><svg viewBox="0 0 160 139.0620559595302" height="139.0620559595302" width="160"><g><svg viewBox="0 0 160 139.0620559595302" height="139.0620559595302" width="160"><g transform="matrix(1,0,0,1,0,82.99832518131933)"><svg viewBox="0 0 160 56.063730778210854" height="56.063730778210854" width="160"><g id="SvgjsG1630"><svg viewBox="0 0 160 56.063730778210854" height="56.063730778210854" width="160" id="SvgjsSvg1629"><g><svg viewBox="0 0 160 37.815912706833196" height="37.815912706833196" width="160"><g transform="matrix(1,0,0,1,0,0)"><svg width="160" viewBox="-1.25 -36 170.913333333325 40.4" height="37.815912706833196" data-palette-color="url(#02982692-a2fd-4896-b345-4cef048d46c8)"></svg></g></svg></g><g transform="matrix(1,0,0,1,0,43.33416195266512)"><svg viewBox="0 0 160 12.729568825545735" height="12.729568825545735" width="160"><g transform="matrix(1,0,0,1,0,0)"><svg width="160" viewBox="1.75 -32.7 554.24 44.1" height="12.729568825545735" data-palette-color="#ff4136"></svg></g></svg></g></svg></g></svg></g><g transform="matrix(1,0,0,1,55.49160404136417,0)"><svg viewBox="0 0 49.016791917271654 77.4800759354874" height="77.4800759354874" width="49.016791917271654"><g><svg xmlns="http://www.w3.org/2000/svg" xmlns:xlink="http://www.w3.org/1999/xlink" version="1.1" x="0" y="0" viewBox="22.162 6.5 55.672089071149806 88" enable-background="new 0 0 100 100" xml:space="preserve" height="77.4800759354874" width="49.016791917271654" class="icon-icon-0" data-fill-palette-color="accent" id="SvgjsSvg1628"></svg></g></svg></g><g></g></svg></g></svg></g></svg></g></svg></g><defs><linearGradient x1="0" x2="1" y1="0.5" y2="0.5" id="SvgjsLinearGradient1627"><stop stop-color="#ffa62e" offset="0"></stop><stop stop-color="#f71b3d" offset="1"></stop></linearGradient><mask></mask></defs><mask id="SvgjsMask1626"><g id="SvgjsG1625"><svg viewBox="0 0 320 360" height="360" width="320"><g><svg></svg></g><g><svg viewBox="0 0 320 360" height="360" width="320"><g></g><g transform="matrix(1,0,0,1,80,110.4689720202349)"><svg viewBox="0 0 160 139.0620559595302" height="139.0620559595302" width="160"><g><svg viewBox="0 0 160 139.0620559595302" height="139.0620559595302" width="160"><g><svg viewBox="0 0 160 139.0620559595302" height="139.0620559595302" width="160"><g transform="matrix(1,0,0,1,0,82.99832518131933)"><svg viewBox="0 0 160 56.063730778210854" height="56.063730778210854" width="160"><g id="SvgjsG1624"><svg viewBox="0 0 160 56.063730778210854" height="56.063730778210854" width="160" id="SvgjsSvg1623"><g><svg viewBox="0 0 160 37.815912706833196" height="37.815912706833196" width="160"><g transform="matrix(1,0,0,1,0,0)"><svg width="160" viewBox="-1.25 -36 170.913333333325 40.4" height="37.815912706833196" data-palette-color="url(#02982692-a2fd-4896-b345-4cef048d46c8)"></svg></g></svg></g><g transform="matrix(1,0,0,1,0,43.33416195266512)"><svg viewBox="0 0 160 12.729568825545735" height="12.729568825545735" width="160"><g transform="matrix(1,0,0,1,0,0)"><svg width="160" viewBox="1.75 -32.7 554.24 44.1" height="12.729568825545735" data-palette-color="#ff4136"></svg></g></svg></g></svg></g></svg></g><g transform="matrix(1,0,0,1,55.49160404136417,0)"><svg viewBox="0 0 49.016791917271654 77.4800759354874" height="77.4800759354874" width="49.016791917271654"><g><svg xmlns="http://www.w3.org/2000/svg" xmlns:xlink="http://www.w3.org/1999/xlink" version="1.1" x="0" y="0" viewBox="22.162 6.5 55.672089071149806 88" enable-background="new 0 0 100 100" xml:space="preserve" height="77.4800759354874" width="49.016791917271654" class="icon-icon-0" data-fill-palette-color="accent" id="SvgjsSvg1622"></svg></g></svg></g><g></g></svg></g></svg></g></svg></g></svg></g><defs><mask></mask></defs></svg></g></mask></svg></g></mask></svg></g></mask></svg><rect width="320" height="360" fill="none" stroke="none" visibility="hidden"></rect></g></svg></g></svg>