<svg xmlns="http://www.w3.org/2000/svg" version="1.1" xmlns:xlink="http://www.w3.org/1999/xlink" xmlns:svgjs="http://svgjs.dev/svgjs" width="1000" height="1000" viewBox="0 0 1000 1000"><rect width="1000" height="1000" fill="#ffffff"></rect><g transform="matrix(0.7,0,0,0.7,149.57605563665675,399.61449808315996)"><svg viewBox="0 0 396 114" data-background-color="#ffffff" preserveAspectRatio="xMidYMid meet" height="287" width="1000" xmlns="http://www.w3.org/2000/svg" xmlns:xlink="http://www.w3.org/1999/xlink"><g id="tight-bounds" transform="matrix(1,0,0,1,0.24008861730862918,-0.03659921095189134)"><svg viewBox="0 0 395.52 114.07297276147479" height="114.07297276147479" width="395.52"><g><svg viewBox="0 0 395.52 114.07297276147479" height="114.07297276147479" width="395.52"><g><svg viewBox="0 0 395.52 114.07297276147479" height="114.07297276147479" width="395.52"><g id="textblocktransform"><svg viewBox="0 0 395.52 114.07297276147479" height="114.07297276147479" width="395.52" id="textblock"><g><svg viewBox="0 0 395.52 114.07297276147479" height="114.07297276147479" width="395.52"><path d="M394.594 24.466C392.735 12.626 387.435 9.334 387.435 9.334 371.165-2.862 350.86-0.233 332.619 1.519 300.414 1.59 268.339 4.195 236.208 5.592 168.767 5.805 100.749 2.301 33.643 10.944 27.339 13.597-6.54 11.465 1.121 25.982 3.129 32.021 10.456 38.723 10.232 44.264 11.236 45.235 12.631 43.009 13.226 44.406 15.309 48.172 18.711 46.396 21.501 48.622 17.614 54.566 20.403 59.515 23.062 64.701 18.377 66.051 12.371 65.412 9.675 69.888 9.396 73.132 7.89 72.516 6.235 72.374 5.026 72.279 2.59 72.635 2.999 73.653 4.394 77.134-1.594 79.147 2.162 82.557-0.422 86.251 3.948 89.448 3.353 93.451 3.278 94.256 3.687 94.943 4.338 95.132 7.22 96.15 3.018 98.14 3.464 100.295 33.029 115.024 65.104 104.841 95.394 111.614 103.259 106.878 97.346 113.296 100.489 112.301 102.943 111.141 104.728 115.948 107.499 113.225 107.927 112.443 107.276 110.596 108.8 110.951 109.6 111.141 110.307 111.093 110.418 110.004 110.586 108.37 109.117 109.388 108.726 108.536 112.947 104.226 111.906 114.48 115.866 114.053 115.68 112.798 114.528 110.999 116.889 111.235 119.232 109.436 119.306 107.944 121.389 111.993 121.463 112.869 121.835 113.485 122.43 113.911 128.938 109.507 135.409 115.474 142.233 113.485 146.417 111.306 150.433 114.669 154.672 113.84 156.16 113.177 157.666 111.993 159.098 113.982 176.632 114.409 195.319 112.633 211.943 114.053 256.364 111.401 303.835 115.143 350.674 111.638 361.719 110.288 373.192 108.37 383.958 106.831 383.958 106.831 392.679 102.615 392.679 83.67S394.538 67.093 394.817 52.008C395.096 36.923 396.398 36.307 394.538 24.466Z" opacity="1" fill="#000000" data-fill-palette-color="tertiary"></path><g transform="matrix(1,0,0,1,55.76832,26.230666666666668)"><svg width="283.98335999999995" viewBox="-0.8500000238418579 -42.349998474121094 199.3300018310547 43.25" height="61.61163942814145" data-palette-color="#ffffff"><path d="M24.7-42.1Q26-42.1 26.9-41.48 27.8-40.85 27.8-39.95L27.8-39.95Q27.8-38.35 26.8-37.38 25.8-36.4 23.95-36.4L23.95-36.4Q21.05-36.4 19.55-36.35L19.55-36.35Q19.45-35.75 18.65-30.95L18.65-30.95Q17.75-25.6 17.55-24.4L17.55-24.4 16.5-17.85Q15.4-10.5 14.75-5.55L14.75-5.55Q15.8-5.6 17.6-5.6L17.6-5.6Q20.25-5.6 21.2-4.9 22.15-4.2 22.15-2.8L22.15-2.8Q22.15-1.5 21.13-0.6 20.1 0.3 18.25 0.3L18.25 0.3Q17 0.3 14.3 0.2L14.3 0.2Q11.8 0.1 11 0.1L11 0.1Q7.85 0.1 4.1 0.65L4.1 0.65Q2.45 0.9 1.75 0.9L1.75 0.9Q0.65 0.9-0.1 0.3-0.85-0.3-0.85-1.45L-0.85-1.45Q-0.85-3.25 0.75-4.25 2.35-5.25 5.25-5.3L5.25-5.3 7.6-5.35 7.75-6.45Q8.95-14.45 9.5-17.75L9.5-17.75 10.6-24.3Q11.6-30.1 12.4-36.25L12.4-36.25 8.2-36.2Q6.4-36.2 5.73-36.77 5.05-37.35 5.05-38.4L5.05-38.4Q5.05-41.8 9.95-42.05L9.95-42.05Q12.25-42.15 15.55-42.15L15.55-42.15 24.7-42.1ZM36.7 0.25Q31.8 0.25 29.07-2.53 26.35-5.3 26.35-9.85L26.35-9.85Q26.35-13.9 27.95-16.95 29.55-20 32.1-21.65 34.65-23.3 37.45-23.3L37.45-23.3Q40.2-23.3 41.72-21.68 43.25-20.05 43.25-17.5L43.25-17.5Q43.25-15.4 42.32-13.95 41.4-12.5 39.9-12.5L39.9-12.5Q38.95-12.5 38.37-12.95 37.8-13.4 37.8-14.2L37.8-14.2Q37.8-14.55 37.9-15 38-15.45 38.05-15.65L38.05-15.65Q38.3-16.4 38.3-17.05L38.3-17.05Q38.3-17.7 37.97-18.05 37.65-18.4 37.05-18.4L37.05-18.4Q35.9-18.4 34.9-17.38 33.9-16.35 33.3-14.6 32.7-12.85 32.7-10.75L32.7-10.75Q32.7-4.95 37.75-4.95L37.75-4.95Q39.8-4.95 42.17-6.33 44.55-7.7 46.85-10.45L46.85-10.45Q47.45-11.15 48.2-11.15L48.2-11.15Q48.85-11.15 49.22-10.55 49.6-9.95 49.6-8.9L49.6-8.9Q49.6-7 48.65-5.8L48.65-5.8Q46.3-2.9 43.02-1.33 39.75 0.25 36.7 0.25L36.7 0.25ZM71.05-15.35Q71.7-15.35 72.05-14.7 72.4-14.05 72.4-13.05L72.4-13.05Q72.4-10.65 70.95-10.2L70.95-10.2Q67.95-9.15 64.34-9L64.34-9Q63.4-4.8 60.59-2.27 57.8 0.25 54.25 0.25L54.25 0.25Q51.25 0.25 49.12-1.2 47-2.65 45.9-5.05 44.8-7.45 44.8-10.25L44.8-10.25Q44.8-14.05 46.25-17.03 47.7-20 50.25-21.68 52.8-23.35 55.9-23.35L55.9-23.35Q59.7-23.35 62.02-20.73 64.34-18.1 64.75-14.25L64.75-14.25Q67.09-14.4 70.34-15.25L70.34-15.25Q70.75-15.35 71.05-15.35L71.05-15.35ZM54.65-5.05Q56.25-5.05 57.42-6.35 58.6-7.65 59-10.1L59-10.1Q57.45-11.15 56.62-12.85 55.8-14.55 55.8-16.45L55.8-16.45Q55.8-17.25 55.95-18.05L55.95-18.05 55.7-18.05Q53.7-18.05 52.37-16.13 51.05-14.2 51.05-10.7L51.05-10.7Q51.05-7.95 52.12-6.5 53.2-5.05 54.65-5.05L54.65-5.05ZM71.64 0.25Q69.74 0.25 68.97-1.75 68.19-3.75 68.19-8.15L68.19-8.15Q68.19-14.65 70.04-20.5L70.04-20.5Q70.49-21.95 71.52-22.63 72.54-23.3 74.39-23.3L74.39-23.3Q75.39-23.3 75.79-23.05 76.19-22.8 76.19-22.1L76.19-22.1Q76.19-21.3 75.44-18.5L75.44-18.5Q74.94-16.5 74.64-15 74.34-13.5 74.14-11.3L74.14-11.3Q75.79-15.6 77.84-18.3 79.89-21 81.87-22.15 83.84-23.3 85.49-23.3L85.49-23.3Q88.74-23.3 88.74-20.05L88.74-20.05Q88.74-18.1 87.64-13L87.64-13Q86.69-8.65 86.69-7.25L86.69-7.25Q86.69-5.25 88.14-5.25L88.14-5.25Q89.14-5.25 90.52-6.48 91.89-7.7 94.19-10.45L94.19-10.45Q94.79-11.15 95.54-11.15L95.54-11.15Q96.19-11.15 96.57-10.55 96.94-9.95 96.94-8.9L96.94-8.9Q96.94-6.9 95.99-5.8L95.99-5.8Q93.84-3.15 91.37-1.45 88.89 0.25 85.74 0.25L85.74 0.25Q83.19 0.25 81.89-1.23 80.59-2.7 80.59-5.5L80.59-5.5Q80.59-6.9 81.29-10.5L81.29-10.5Q81.94-13.65 81.94-14.85L81.94-14.85Q81.94-15.65 81.39-15.65L81.39-15.65Q80.74-15.65 79.57-13.98 78.39-12.3 77.17-9.55 75.94-6.8 75.19-3.75L75.19-3.75Q74.64-1.4 73.92-0.58 73.19 0.25 71.64 0.25L71.64 0.25ZM96.44 0.25Q94.54 0.25 93.77-1.75 92.99-3.75 92.99-8.15L92.99-8.15Q92.99-14.65 94.84-20.5L94.84-20.5Q95.29-21.95 96.32-22.63 97.34-23.3 99.19-23.3L99.19-23.3Q100.19-23.3 100.59-23.05 100.99-22.8 100.99-22.1L100.99-22.1Q100.99-21.3 100.24-18.5L100.24-18.5Q99.74-16.5 99.44-15 99.14-13.5 98.94-11.3L98.94-11.3Q100.59-15.6 102.64-18.3 104.69-21 106.67-22.15 108.64-23.3 110.29-23.3L110.29-23.3Q113.54-23.3 113.54-20.05L113.54-20.05Q113.54-18.1 112.44-13L112.44-13Q111.49-8.65 111.49-7.25L111.49-7.25Q111.49-5.25 112.94-5.25L112.94-5.25Q113.94-5.25 115.32-6.48 116.69-7.7 118.99-10.45L118.99-10.45Q119.59-11.15 120.34-11.15L120.34-11.15Q120.99-11.15 121.37-10.55 121.74-9.95 121.74-8.9L121.74-8.9Q121.74-6.9 120.79-5.8L120.79-5.8Q118.64-3.15 116.17-1.45 113.69 0.25 110.54 0.25L110.54 0.25Q107.99 0.25 106.69-1.23 105.39-2.7 105.39-5.5L105.39-5.5Q105.39-6.9 106.09-10.5L106.09-10.5Q106.74-13.65 106.74-14.85L106.74-14.85Q106.74-15.65 106.19-15.65L106.19-15.65Q105.54-15.65 104.37-13.98 103.19-12.3 101.97-9.55 100.74-6.8 99.99-3.75L99.99-3.75Q99.44-1.4 98.72-0.58 97.99 0.25 96.44 0.25L96.44 0.25ZM139.99-11.15Q140.64-11.15 141.01-10.55 141.39-9.95 141.39-8.9L141.39-8.9Q141.39-6.9 140.44-5.8L140.44-5.8Q138.59-3.55 135.21-1.65 131.84 0.25 127.99 0.25L127.99 0.25Q122.74 0.25 119.84-2.6 116.94-5.45 116.94-10.4L116.94-10.4Q116.94-13.85 118.39-16.82 119.84-19.8 122.41-21.55 124.99-23.3 128.24-23.3L128.24-23.3Q131.14-23.3 132.89-21.58 134.64-19.85 134.64-16.9L134.64-16.9Q134.64-13.45 132.16-10.98 129.69-8.5 123.79-7.05L123.79-7.05Q125.04-4.75 128.54-4.75L128.54-4.75Q130.79-4.75 133.66-6.33 136.54-7.9 138.64-10.45L138.64-10.45Q139.24-11.15 139.99-11.15L139.99-11.15ZM127.39-18.4Q125.54-18.4 124.26-16.25 122.99-14.1 122.99-11.05L122.99-11.05 122.99-10.95Q125.94-11.65 127.64-13.05 129.34-14.45 129.34-16.3L129.34-16.3Q129.34-17.25 128.81-17.82 128.29-18.4 127.39-18.4L127.39-18.4ZM146.88 0.25Q141.99 0.25 139.26-2.53 136.53-5.3 136.53-9.85L136.53-9.85Q136.53-13.9 138.13-16.95 139.74-20 142.28-21.65 144.84-23.3 147.63-23.3L147.63-23.3Q150.38-23.3 151.91-21.68 153.44-20.05 153.44-17.5L153.44-17.5Q153.44-15.4 152.51-13.95 151.59-12.5 150.09-12.5L150.09-12.5Q149.13-12.5 148.56-12.95 147.99-13.4 147.99-14.2L147.99-14.2Q147.99-14.55 148.09-15 148.19-15.45 148.24-15.65L148.24-15.65Q148.49-16.4 148.49-17.05L148.49-17.05Q148.49-17.7 148.16-18.05 147.84-18.4 147.24-18.4L147.24-18.4Q146.09-18.4 145.09-17.38 144.09-16.35 143.49-14.6 142.88-12.85 142.88-10.75L142.88-10.75Q142.88-4.95 147.94-4.95L147.94-4.95Q149.99-4.95 152.36-6.33 154.74-7.7 157.03-10.45L157.03-10.45Q157.63-11.15 158.38-11.15L158.38-11.15Q159.03-11.15 159.41-10.55 159.78-9.95 159.78-8.9L159.78-8.9Q159.78-7 158.84-5.8L158.84-5.8Q156.49-2.9 153.21-1.33 149.94 0.25 146.88 0.25L146.88 0.25ZM195.38-41.5Q196.93-41.2 197.71-40.45 198.48-39.7 198.48-38.7L198.48-38.7Q198.48-37.05 197.56-36.3 196.63-35.55 194.63-35.7L194.63-35.7Q190.13-36.05 187.61-36.18 185.08-36.3 180.98-36.35L180.98-36.35Q179.13-27.15 177.58-17.85L177.58-17.85Q177.03-14.45 176.43-9.98 175.83-5.5 175.63-2.75L175.63-2.75Q175.53-1.3 174.43-0.53 173.33 0.25 171.78 0.25L171.78 0.25Q170.13 0.25 169.23-0.55 168.33-1.35 168.33-2.65L168.33-2.65Q168.33-3.85 168.71-6.63 169.08-9.4 169.58-12.45L169.58-12.45Q170.13-15.5 170.43-17.75L170.43-17.75Q170.98-21.55 171.68-25.3 172.38-29.05 173.08-32.4L173.08-32.4Q173.23-33.15 173.43-34.13 173.63-35.1 173.88-36.3L173.88-36.3Q168.98-36.15 166.18-35.5 163.38-34.85 162.21-33.68 161.03-32.5 161.03-30.65L161.03-30.65Q161.03-28.95 162.03-27.4L162.03-27.4Q162.23-27.05 162.23-26.65L162.23-26.65Q162.23-25.7 161.11-24.88 159.98-24.05 158.78-24.05L158.78-24.05Q157.93-24.05 157.38-24.55L157.38-24.55Q156.38-25.4 155.73-26.98 155.08-28.55 155.08-30.55L155.08-30.55Q155.08-34.8 157.86-37.38 160.63-39.95 166.31-41.15 171.98-42.35 180.88-42.35L180.88-42.35Q186.38-42.35 189.66-42.15 192.93-41.95 195.38-41.5L195.38-41.5Z" opacity="1" transform="matrix(1,0,0,1,0,0)" fill="#ffffff" class="undefined-text-0" data-fill-palette-color="quaternary" id="text-0"></path></svg></g></svg></g></svg></g></svg></g><g></g></svg></g><defs></defs></svg><rect width="395.52" height="114.07297276147479" fill="none" stroke="none" visibility="hidden"></rect></g></svg></g></svg>